<?xml version="1.0" encoding="UTF-8" standalone="no"?>
<!-- Created with Inkscape (http://www.inkscape.org/) -->

<svg
   xmlns:dc="http://purl.org/dc/elements/1.1/"
   xmlns:cc="http://creativecommons.org/ns#"
   xmlns:rdf="http://www.w3.org/1999/02/22-rdf-syntax-ns#"
   xmlns:svg="http://www.w3.org/2000/svg"
   xmlns="http://www.w3.org/2000/svg"
   xmlns:sodipodi="http://sodipodi.sourceforge.net/DTD/sodipodi-0.dtd"
   xmlns:inkscape="http://www.inkscape.org/namespaces/inkscape"
   width="3000"
   height="3000"
   viewBox="0 0 793.74998 793.75"
   version="1.1"
   id="svg1"
   inkscape:version="0.92.3 (2405546, 2018-03-11)"
   sodipodi:docname="zn-mono3-blueblack.svg"
   xml:space="preserve"
   inkscape:export-filename="E:\lieder von jo\nz zn monogram\nz-mono2\znnz-mono2-black.png"
   inkscape:export-xdpi="96"
   inkscape:export-ydpi="96"><metadata
     id="metadata206"><rdf:RDF><cc:Work
         rdf:about=""><dc:format>image/svg+xml</dc:format><dc:type
           rdf:resource="http://purl.org/dc/dcmitype/StillImage" /><dc:title></dc:title></cc:Work></rdf:RDF></metadata><sodipodi:namedview
     id="namedview1"
     pagecolor="#ffffff"
     bordercolor="#000000"
     borderopacity="0.25"
     inkscape:showpageshadow="2"
     inkscape:pageopacity="0.0"
     inkscape:pagecheckerboard="0"
     inkscape:deskcolor="#d1d1d1"
     inkscape:document-units="px"
     inkscape:zoom="0.026888682"
     inkscape:cx="-1287.6094"
     inkscape:cy="4373.5215"
     inkscape:window-width="1934"
     inkscape:window-height="1119"
     inkscape:window-x="-11"
     inkscape:window-y="-11"
     inkscape:window-maximized="1"
     inkscape:current-layer="layer1"
     showgrid="false" /><defs
     id="defs1" /><g
     inkscape:label="Layer 1"
     inkscape:groupmode="layer"
     id="layer1"><g
       id="g96"
       transform="translate(1.0391317,-12.601236)"
       style="fill:#000000"><path
         style="fill:#000000;stroke-width:3.08616996"
         d="m 144.2329,278.16063 c -1.85917,-3.14735 -2.0288,-8.21828 -2.56661,-76.74211 l -0.57588,-73.37207 11.32188,-0.002 c 6.22706,-0.002 17.54296,-0.32171 25.14653,-0.70951 l 13.82458,-0.7051 10.1275,10.26735 c 5.57013,5.64704 16.1158,15.54514 23.43481,21.99575 7.31901,6.45064 13.60786,12.21472 13.97517,12.80906 0.7902,1.2786 -1.11413,4.35143 -6.79346,10.96186 -2.28692,2.66186 -5.44259,6.52379 -7.01261,8.58207 l -2.8546,3.74238 -11.66819,-10.87853 c -21.51501,-20.05902 -29.08759,-26.58734 -34.07094,-29.37257 -2.72389,-1.52243 -5.0927,-2.62782 -5.26404,-2.45648 -0.61212,0.61209 -0.97819,55.06755 -0.37431,55.67583 0.33891,0.34133 2.17612,0.0319 4.08278,-0.68788 3.27882,-1.23765 3.46656,-1.61247 3.46656,-6.92173 0,-7.2261 1.05173,-12.41781 2.51556,-12.41781 0.63508,0 2.24177,-1.0213 3.57047,-2.26954 l 2.41581,-2.26954 10.99133,9.99476 c 6.04523,5.49712 10.99135,10.60932 10.99135,11.36045 0,0.7512 -2.98849,3.96507 -6.64106,7.142 -3.65263,3.1769 -10.74595,11.21174 -15.76297,17.85516 -5.01703,6.64341 -11.84599,15.50844 -15.17545,19.70007 -3.32944,4.1916 -8.94741,11.79058 -12.48438,16.88663 -3.53694,5.09603 -7.82541,10.60164 -9.52997,12.23468 l -3.09917,2.9692 z"
         id="path63"
         inkscape:connector-curvature="0" /><path
         style="fill:#000000;stroke-width:3.08616996"
         d="m 387.19649,289.92213 -6.26024,-5.68912 V 259.0613 233.88955 l 2.44963,-0.61258 c 1.34734,-0.33692 7.63808,-0.94707 13.97952,-1.35584 l 11.52989,-0.74331 0.71273,10.76424 c 0.39202,5.92033 0.71526,16.696 0.71837,23.94592 l 0.005,13.18167 -8.1869,8.32078 c -4.50276,4.57645 -8.29972,8.29828 -8.43763,8.27077 -0.13798,-0.0279 -3.0679,-2.61008 -6.511,-5.73907 z"
         id="path64"
         inkscape:connector-curvature="0" /><path
         style="fill:#000000;stroke-width:3.08616996"
         d="m 441.20483,352.50106 -7.77719,-8.34127 9.4103,-9.83986 c 5.17565,-5.4119 21.05089,-22.41003 35.2783,-37.77357 14.22744,-15.36355 37.25413,-39.65501 51.17045,-53.98105 13.91628,-14.32602 32.87228,-33.95013 42.1244,-43.60914 l 16.82207,-17.56183 h 9.07029 c 8.29095,0 16.62148,1.93126 16.62148,3.85336 0,0.81484 -24.92465,27.67369 -43.95721,47.3684 -7.26068,7.51328 -21.77501,22.94014 -32.25404,34.28194 -18.66453,20.20124 -48.26871,51.79148 -63.73188,68.00752 -16.39488,17.19312 -22.83501,24.17475 -23.18522,25.13478 -0.64278,1.76191 -1.67887,0.94754 -9.59175,-7.53928 z"
         id="path65"
         inkscape:connector-curvature="0" /><path
         style="fill:#000000;stroke-width:3.08616996"
         d="m 703.11532,430.36215 c -5.83602,-3.08619 -10.80167,-11.58234 -10.80167,-18.48154 0,-6.2466 3.79346,-13.42611 8.8685,-16.78464 4.95182,-3.27695 13.06842,-4.41026 18.57354,-2.59339 5.42888,1.79167 10.73528,7.77223 12.27434,13.83375 2.62204,10.32664 -1.56225,19.87429 -10.63475,24.26622 -6.18142,2.99237 -12.31928,2.91164 -18.27996,-0.2404 z"
         id="path66"
         inkscape:connector-curvature="0" /><path
         style="fill:#000000;stroke-width:3.08616996"
         d="m 70.315416,430.67135 c -4.568517,-2.47946 -10.163463,-10.37145 -11.174862,-15.76283 -2.138834,-11.40094 8.715957,-23.3541 21.234084,-23.38283 5.038415,-0.0127 12.133905,4.40932 15.437265,9.61822 5.839307,9.20763 3.52824,20.20792 -5.8286,27.74303 -5.39688,4.34614 -13.579915,5.08857 -19.667887,1.78441 z"
         id="path67"
         inkscape:connector-curvature="0" /><path
         style="fill:#000000;stroke-width:3.08616996"
         d="m 538.48331,452.45896 c -2.87013,-3.59933 -6.87369,-7.62932 -8.89686,-8.95553 -2.28611,-1.4986 -3.91676,-3.60273 -4.30802,-5.55901 -0.34625,-1.73124 -0.62951,-18.01383 -0.62951,-36.18359 v -33.03591 l 5.80618,-4.2893 c 3.19341,-2.35908 8.60759,-7.38489 12.03147,-11.16841 4.78573,-5.28843 6.44479,-6.52395 7.17459,-5.34309 2.31506,3.74586 3.6513,21.76544 3.67682,49.58351 0.034,37.1404 -1.12649,48.26438 -5.83332,55.91398 -1.89494,3.07965 -3.52579,5.59542 -3.62416,5.5905 -0.0985,-0.005 -2.52708,-2.95384 -5.39719,-6.55315 z"
         id="path68"
         inkscape:connector-curvature="0" /><path
         style="fill:#000000;stroke-width:3.08616996"
         d="m 240.31736,453.95814 c -1.08955,-4.75079 -1.46063,-17.29427 -1.46063,-49.37373 v -43.0049 l 4.19662,-7.62115 c 2.30819,-4.1916 4.3986,-7.83347 4.6454,-8.09302 0.2469,-0.25954 4.6049,3.89523 9.68468,9.23286 l 9.23595,9.70478 v 36.76607 c 0,26.88828 -0.3349,36.76607 -1.24656,36.76607 -0.68563,0 -6.27491,4.94814 -12.42071,10.99593 l -11.1741,10.99589 z"
         id="path69"
         inkscape:connector-curvature="0" /><path
         style="fill:#000000;stroke-width:3.08616996"
         d="m 205.69937,492.50515 c -5.68514,-9.95437 -13.6942,-37.82139 -16.29522,-56.69846 -1.69875,-12.32861 -1.45109,-43.99331 0.44235,-56.5547 5.3884,-35.74827 21.07593,-70.23672 46.16062,-101.4825 33.83666,-42.14729 77.16598,-72.39458 123.69886,-86.35147 13.85277,-4.15494 13.78601,-4.14065 31.73038,-6.79615 8.46326,-1.25247 26.31614,-2.69248 40.6703,-3.28048 30.05327,-1.23106 130.64913,-1.90191 130.64837,-0.87122 -0.001,1.39766 -24.64274,28.01584 -46.71454,50.46147 -12.36541,12.57486 -30.30222,31.19217 -39.85958,41.37182 -9.55735,10.17962 -20.59595,21.93794 -24.53024,26.12958 -6.14443,6.5463 -29.30978,32.06366 -29.93699,32.97647 -0.11886,0.17274 -4.4283,-3.96456 -9.57656,-9.19455 l -9.36051,-9.50904 2.60175,-3.41112 c 5.97786,-7.83732 45.81421,-49.92792 74.90469,-79.14332 10.62878,-10.67441 19.32501,-19.88743 19.32501,-20.47343 0,-2.17445 -86.51559,0.0602 -104.5183,2.69948 -13.99056,2.05118 -31.46001,6.33257 -42.60279,10.44105 -33.95519,12.5197 -65.98407,37.36721 -95.79481,74.31617 -22.65955,28.08536 -32.87809,49.49342 -37.94447,79.49443 -2.63382,15.59643 -3.19844,41.77295 -1.17829,54.62916 2.42076,15.4058 5.81462,30.67557 8.42999,37.92847 l 2.68426,7.44396 -4.45407,3.81255 c -2.44975,2.09689 -6.69539,6.95343 -9.43475,10.79229 -2.73936,3.83885 -5.17268,6.97975 -5.40742,6.97975 -0.23486,0 -1.89435,-2.56962 -3.68804,-5.71021 z"
         id="path70"
         inkscape:connector-curvature="0" /><path
         style="fill:#000000;stroke-width:3.08616996"
         d="m 513.21722,493.60599 c -10.06815,-11.93103 -40.84671,-45.68496 -54.36984,-59.62582 -6.67989,-6.88621 -14.7934,-15.46 -18.03005,-19.0528 -3.23666,-3.59281 -12.67865,-13.58449 -20.98224,-22.20365 -8.30361,-8.61923 -19.34191,-20.60117 -24.52957,-26.62661 -21.14886,-24.56423 -78.78499,-83.65404 -86.22559,-88.40039 -2.6946,-1.71888 -5.10854,-3.2732 -5.36429,-3.45406 -1.52717,-1.07992 19.61919,-17.72583 22.51824,-17.72583 1.31024,0 37.31374,37.52471 46.83827,48.81722 4.02585,4.77312 19.81295,21.82246 35.08241,37.88737 15.26945,16.06492 30.70226,32.40166 34.29507,36.30391 10.57295,11.48356 28.76065,30.36044 56.12924,58.25625 27.41531,27.9434 38.40571,40.44156 37.25256,42.36318 -3.07108,5.11759 -14.76597,21.32312 -15.34937,21.26954 -0.40287,-0.0369 -3.67201,-3.55073 -7.26484,-7.80831 z"
         id="path71"
         inkscape:connector-curvature="0" /><path
         style="fill:#000000;stroke-width:3.08616996"
         d="m 470.80049,493.71247 c -15.06893,-15.18802 -31.7741,-32.75886 -37.12257,-39.04631 -5.34844,-6.28743 -19.30582,-20.98531 -31.0164,-32.66197 -11.71057,-11.67664 -25.65426,-26.37453 -30.98602,-32.66194 -5.33175,-6.28743 -18.53485,-20.49539 -29.34024,-31.57325 -40.91861,-41.95035 -57.20744,-60.39694 -57.20744,-64.78569 0,-2.28468 10.35573,-12.79533 12.16005,-12.34193 2.0626,0.51826 54.18774,56.73818 68.95347,74.37022 2.9924,3.57324 9.8749,10.9222 15.29444,16.33098 5.41958,5.40879 11.54372,11.84016 13.60916,14.29191 7.59503,9.01547 27.10314,29.84474 47.31869,50.52323 47.17006,48.25034 57.41521,59.64254 64.53363,71.75885 l 2.82105,4.80183 -3.7442,3.16737 c -7.76125,6.56545 -5.10131,8.23752 -35.27362,-22.1733 z"
         id="path72"
         inkscape:connector-curvature="0" /><path
         style="fill:#000000;stroke-width:3.08616996"
         d="m 171.00674,529.51649 c -9.8483,-14.35248 -24.48405,-51.21799 -28.96213,-72.95185 -14.75914,-71.6314 3.60639,-145.27799 52.22948,-209.44259 25.5011,-33.65209 49.18328,-56.23181 79.64519,-75.93749 9.98333,-6.45823 34.80503,-19.34427 44.95923,-23.34041 22.65557,-8.91598 52.51377,-16.49503 72.94506,-18.51602 13.94528,-1.37941 59.15767,-1.76559 167.54588,-1.43103 l 90.79019,0.28023 -0.0683,42.12298 -0.0683,42.12298 -4.16786,4.57543 c -29.57821,32.47084 -61.7098,67.04399 -77.20133,83.06746 -7.23652,7.48506 -23.96175,24.87757 -37.16712,38.65 -13.20543,13.77246 -30.18975,31.31926 -37.74298,38.99289 -7.55323,7.67361 -13.73314,14.41013 -13.73314,14.97007 0,2.23217 -1.98916,0.6142 -10.17565,-8.27684 l -8.54256,-9.27771 4.18763,-5.1247 c 2.30321,-2.8186 14.96608,-16.29624 28.13973,-29.95032 13.17366,-13.65408 35.71041,-37.51444 50.0817,-53.02297 14.37123,-15.50853 33.23354,-35.70584 41.91616,-44.88287 8.68264,-9.17707 20.79443,-22.36342 26.91511,-29.30304 l 11.12851,-12.61746 -1.05142,-6.42038 c -0.57829,-3.53124 -1.05541,-13.27942 -1.06025,-21.66267 l -0.009,-15.24225 -92.26753,-0.36725 c -126.74078,-0.50448 -149.5268,1.03118 -185.89848,12.52839 -13.71966,4.33685 -41.30135,17.22436 -53.65075,25.06829 -19.3031,12.26063 -48.86278,38.63929 -64.93083,57.94335 -35.29509,42.40334 -51.86305,80.96714 -57.85755,134.66975 -4.69073,42.02278 2.1723,80.55533 20.8814,117.23918 l 4.88318,9.57474 -5.04077,5.60653 c -2.77242,3.08361 -6.55577,7.71621 -8.40746,10.29462 -1.8517,2.57844 -3.75006,4.68809 -4.21861,4.68809 -0.46851,0 -2.28062,-2.08222 -4.02686,-4.62713 z"
         id="path73"
         inkscape:connector-curvature="0" /><path
         style="fill:#000000;stroke-width:3.08616996"
         d="m 462.97986,547.4262 c -3.70381,-5.93073 -23.5384,-27.52196 -59.70935,-64.99735 -15.02693,-15.56886 -30.47394,-31.73653 -34.3267,-35.92817 -3.85273,-4.19161 -13.14156,-14.01832 -20.64181,-21.8371 -7.50029,-7.81877 -19.22603,-20.31196 -26.05724,-27.76265 -6.83121,-7.4507 -18.0996,-19.45026 -25.04085,-26.66567 -29.82057,-30.99848 -37.32318,-39.10277 -38.7452,-41.85271 -1.45464,-2.8129 -1.24693,-3.24014 5.87144,-12.07783 4.05868,-5.03899 8.10976,-9.76437 9.00233,-10.50085 1.36714,-1.12805 3.94694,1.35999 16.36868,15.78661 8.11014,9.41914 22.03476,24.93186 30.94356,34.47274 32.39211,34.69004 40.94556,43.89891 54.67496,58.86423 7.69091,8.38324 26.6763,28.25045 42.18981,44.14939 15.51346,15.89893 35.71484,36.83245 44.89197,46.51893 9.17709,9.68646 19.10307,19.1782 22.05771,21.09277 l 5.37209,3.48098 -2.46053,2.65923 c -4.46675,4.8275 -19.64229,16.55712 -21.42122,16.55712 -0.96017,0 -2.29657,-0.88183 -2.96965,-1.95967 z"
         id="path74"
         inkscape:connector-curvature="0" /><path
         style="fill:#000000;stroke-width:3.08616996"
         d="M 380.93625,553.27767 V 524.6444 l 7.59916,-5.65077 c 4.17953,-3.10795 8.05783,-6.47036 8.61843,-7.47207 0.89151,-1.59307 1.79407,-1.21078 7.20377,3.05146 l 6.18461,4.87271 -0.13943,28.25058 c -0.0766,15.53784 -0.31545,28.42665 -0.53066,28.64186 -0.44321,0.44317 -18.63762,4.09358 -24.85321,4.98635 l -4.08274,0.5864 z"
         id="path75"
         inkscape:connector-curvature="0" /><path
         style="fill:#000000;stroke-width:3.08616996"
         d="m 186.05323,633.62205 c -2.69464,-0.85709 -5.73944,-1.34897 -6.76621,-1.09307 -2.93358,0.73119 2.26734,-8.66836 8.72141,-15.76201 2.93623,-3.22724 10.67902,-12.4935 17.20613,-20.59165 10.96707,-13.60671 24.55723,-28.59899 69.02594,-76.14741 9.28142,-9.92426 26.42897,-28.3102 38.10562,-40.85763 11.67666,-12.54748 23.43499,-25.1625 26.12957,-28.03341 l 4.8993,-5.21983 8.10414,7.64076 c 4.45727,4.20243 8.55533,7.64077 9.10675,7.64077 0.55144,0 -4.37582,5.51169 -10.94941,12.24823 -19.46285,19.94516 -60.13592,63.97083 -87.70238,94.93147 -36.63964,41.15098 -57.40736,63.10321 -61.94549,65.47857 -3.5909,1.8796 -7.4949,1.81381 -13.93537,-0.23484 z"
         id="path76"
         inkscape:connector-curvature="0" /><path
         style="fill:#000000;stroke-width:3.08616996"
         d="m 239.12888,636.84669 c -14.46128,-0.48761 -15.1063,-0.99383 -8.86008,-6.95326 2.16286,-2.06356 8.8785,-9.63111 14.92362,-16.81673 12.02242,-14.29067 33.54932,-38.2297 52.81297,-58.73086 6.78325,-7.21901 25.44051,-27.3334 41.4606,-44.6987 16.02009,-17.36526 29.95869,-32.2571 30.97469,-33.09301 1.65013,-1.35756 2.80248,-0.60242 10.79853,7.07678 4.92318,4.72807 9.08327,8.87009 9.24464,9.20445 0.30911,0.64048 -3.84324,5.21882 -49.28631,54.3426 -15.56889,16.82991 -30.66609,33.39782 -33.54937,36.81757 -2.88327,3.41979 -8.67369,10.25186 -12.86761,15.18241 -4.48247,5.2698 -7.30369,9.48498 -6.84503,10.22715 1.36631,2.21071 59.81448,-0.67325 77.75847,-3.83678 33.18999,-5.85145 52.18694,-11.00001 72.40068,-19.62217 15.73323,-6.71098 23.93516,-11.26114 36.47253,-20.23371 38.80205,-27.76937 67.35634,-60.34732 85.40279,-97.4371 7.65349,-15.72978 9.96843,-22.89107 12.58645,-38.93679 2.47408,-15.16352 2.98945,-45.58954 0.99662,-58.84058 -1.49365,-9.93165 -5.82493,-27.32467 -8.75418,-35.15376 -1.24136,-3.31783 -2.08669,-6.15734 -1.87851,-6.30993 0.20801,-0.15272 2.00977,-1.40475 4.0036,-2.78258 1.99379,-1.37782 6.07732,-5.87667 9.07453,-9.99746 2.9972,-4.12077 5.90997,-7.20771 6.47279,-6.85988 2.32176,1.43493 8.72578,16.28248 12.24252,28.38388 6.11948,21.05762 8.68554,38.42225 8.74613,59.18512 0.0579,19.85228 -1.12834,29.25946 -6.04077,47.90422 -11.60269,44.03767 -34.07398,78.69166 -78.30266,120.75414 -22.39631,21.29939 -29.34136,26.22266 -55.39459,39.26842 -39.16487,19.61126 -68.05992,28.4304 -100.02351,30.52844 -17.31354,1.13644 -103.81084,2.12805 -124.56954,1.42812 z"
         id="path77"
         inkscape:connector-curvature="0" /><path
         style="fill:#000000;stroke-width:3.08616996"
         d="m 142.26661,646.63812 -0.30708,-45.53748 2.53016,-3.98527 c 4.32087,-6.80584 45.2745,-53.84194 64.30795,-73.8591 9.9641,-10.47902 22.23864,-23.46216 27.27683,-28.85138 40.57808,-43.40559 75.62741,-80.04914 76.31833,-79.78969 0.45732,0.17165 4.98692,4.3111 10.06577,9.19861 l 9.23431,8.88638 -11.48194,12.34391 c -6.31504,6.78914 -20.88714,22.1425 -32.38244,34.11852 -11.49528,11.97608 -26.42754,27.89877 -33.18288,35.3838 -6.75529,7.48507 -16.59516,18.01853 -21.86639,23.40776 -5.27121,5.3892 -16.10377,17.23277 -24.07231,26.31894 -7.96853,9.08622 -20.05338,22.47589 -26.85518,29.75488 -11.39427,12.19357 -12.3148,13.49526 -11.70391,16.54986 0.3647,1.82346 0.66309,14.30647 0.66309,27.74001 0,16.78492 0.35766,24.20359 1.14343,23.71795 0.62891,-0.38868 41.90547,-0.86849 91.7257,-1.06628 92.41511,-0.36686 103.32297,-0.78832 127.92357,-4.94273 42.21344,-7.12871 87.6206,-27.45689 123.79103,-55.41947 32.96743,-25.48645 68.1683,-66.74617 84.10497,-98.58132 10.16602,-20.30767 19.56789,-46.00721 22.50669,-61.52084 4.78486,-25.25896 4.81104,-58.5125 0.0668,-84.57307 -4.0364,-22.17108 -7.40733,-32.92141 -15.57359,-49.66614 l -7.33027,-15.03054 9.42305,-9.97673 9.423,-9.97672 4.8909,7.58754 c 12.8067,19.86786 22.69941,47.13608 27.6367,76.17766 8.94408,52.61013 1.01451,107.07797 -22.42785,154.0556 -8.16065,16.35367 -11.61329,22.07195 -20.59792,34.1145 -21.59793,28.94875 -33.59496,42.2204 -57.11961,63.1883 -28.64445,25.53117 -45.10298,36.79514 -75.8301,51.89685 -21.50991,10.57164 -59.48532,23.64031 -77.29998,26.60162 -15.06607,2.50438 -52.83314,3.80727 -126.29293,4.35681 -70.9738,0.53095 -109.7244,1.26954 -121.63096,2.31842 l -6.76971,0.59632 z"
         id="path78"
         inkscape:connector-curvature="0" /><path
         style="fill:#000000;stroke-width:3.08616996"
         d="m 642.77633,691.93237 c -2.99401,-0.40717 -11.40124,-0.48397 -18.68272,-0.17074 -12.75607,0.54893 -13.41299,0.46776 -18.00675,-2.22434 -2.62225,-1.53674 -8.9291,-7.12083 -14.01529,-12.4091 -5.08616,-5.28825 -16.44316,-16.54128 -25.23777,-25.00674 -8.7946,-8.46543 -16.5681,-16.66012 -17.27446,-18.21042 -1.21035,-2.65637 -0.82377,-3.30596 6.71442,-11.28218 4.39928,-4.65494 8.40689,-8.63179 8.90573,-8.83742 0.49887,-0.20554 7.62876,6.21799 15.84421,14.27472 18.77857,18.41576 38.3964,36.72521 39.34955,36.72521 0.65783,0 0.22283,-27.33064 -0.4467,-28.07884 -0.15563,-0.17384 -2.32914,-0.5628 -4.82996,-0.86423 -6.90461,-0.83223 -9.66256,-2.20396 -17.77439,-8.84055 -8.15885,-6.67497 -21.75259,-20.85393 -21.26495,-22.18032 0.16856,-0.45835 3.44414,-4.09292 7.27906,-8.07681 l 6.9727,-7.24338 2.28153,2.65293 c 1.25487,1.45914 7.67081,8.63989 14.25765,15.95722 6.5868,7.31736 12.26298,14.1002 12.61369,15.07295 0.36501,1.01234 0.94697,-0.48778 1.36095,-3.50793 1.38937,-10.13657 1.09753,-11.20769 -4.55293,-16.71012 -2.90191,-2.82588 -6.63431,-7.34264 -8.29431,-10.03724 -1.65998,-2.69462 -4.49303,-6.45746 -6.29564,-8.36188 l -3.27748,-3.46258 9.12214,-12.08951 c 6.69551,-8.87349 9.62898,-11.96181 11.02744,-11.60941 1.31508,0.33139 1.90528,-0.16146 1.90528,-1.59092 0,-1.13907 3.2594,-5.62274 7.24309,-9.96369 3.98369,-4.34096 9.18682,-10.46712 11.5625,-13.61367 2.37566,-3.14654 4.69464,-5.72101 5.15328,-5.72101 0.45863,0 1.61604,1.64832 2.57204,3.66293 1.51946,3.20205 1.83127,13.59086 2.4782,82.57018 0.44331,47.26995 0.34182,79.1097 -0.25307,79.41219 -0.54629,0.27775 -3.4429,0.17183 -6.43693,-0.23549 z"
         id="path79"
         inkscape:connector-curvature="0" /><path
         style="fill:#000000;stroke-width:3.08616996"
         d="m 144.2329,278.16063 c -1.85917,-3.14735 -2.0288,-8.21828 -2.56661,-76.74211 l -0.57588,-73.37207 11.32188,-0.002 c 6.22706,-0.002 17.54296,-0.32171 25.14653,-0.70951 l 13.82458,-0.7051 10.1275,10.26735 c 5.57013,5.64704 16.1158,15.54514 23.43481,21.99575 7.31901,6.45064 13.60786,12.21472 13.97517,12.80906 0.7902,1.2786 -1.11413,4.35143 -6.79346,10.96186 -2.28692,2.66186 -5.44259,6.52379 -7.01261,8.58207 l -2.8546,3.74238 -11.66819,-10.87853 c -21.51501,-20.05902 -29.08759,-26.58734 -34.07094,-29.37257 -2.72389,-1.52243 -5.0927,-2.62782 -5.26404,-2.45648 -0.61212,0.61209 -0.97819,55.06755 -0.37431,55.67583 0.33891,0.34133 2.17612,0.0319 4.08278,-0.68788 3.27882,-1.23765 3.46656,-1.61247 3.46656,-6.92173 0,-7.2261 1.05173,-12.41781 2.51556,-12.41781 0.63508,0 2.24177,-1.0213 3.57047,-2.26954 l 2.41581,-2.26954 10.99133,9.99476 c 6.04523,5.49712 10.99135,10.60932 10.99135,11.36045 0,0.7512 -2.98849,3.96507 -6.64106,7.142 -3.65263,3.1769 -10.74595,11.21174 -15.76297,17.85516 -5.01703,6.64341 -11.84599,15.50844 -15.17545,19.70007 -3.32944,4.1916 -8.94741,11.79058 -12.48438,16.88663 -3.53694,5.09603 -7.82541,10.60164 -9.52997,12.23468 l -3.09917,2.9692 z"
         id="path80"
         inkscape:connector-curvature="0" /><path
         style="fill:#000000;stroke-width:3.08616996"
         d="m 387.19649,289.92213 -6.26024,-5.68912 V 259.0613 233.88955 l 2.44963,-0.61258 c 1.34734,-0.33692 7.63808,-0.94707 13.97952,-1.35584 l 11.52989,-0.74331 0.71273,10.76424 c 0.39202,5.92033 0.71526,16.696 0.71837,23.94592 l 0.005,13.18167 -8.1869,8.32078 c -4.50276,4.57645 -8.29972,8.29828 -8.43763,8.27077 -0.13798,-0.0279 -3.0679,-2.61008 -6.511,-5.73907 z"
         id="path81"
         inkscape:connector-curvature="0" /><path
         style="fill:#000000;stroke-width:3.08616996"
         d="m 441.20483,352.50106 -7.77719,-8.34127 9.4103,-9.83986 c 5.17565,-5.4119 21.05089,-22.41003 35.2783,-37.77357 14.22744,-15.36355 37.25413,-39.65501 51.17045,-53.98105 13.91628,-14.32602 32.87228,-33.95013 42.1244,-43.60914 l 16.82207,-17.56183 h 9.07029 c 8.29095,0 16.62148,1.93126 16.62148,3.85336 0,0.81484 -24.92465,27.67369 -43.95721,47.3684 -7.26068,7.51328 -21.77501,22.94014 -32.25404,34.28194 -18.66453,20.20124 -48.26871,51.79148 -63.73188,68.00752 -16.39488,17.19312 -22.83501,24.17475 -23.18522,25.13478 -0.64278,1.76191 -1.67887,0.94754 -9.59175,-7.53928 z"
         id="path82"
         inkscape:connector-curvature="0" /><path
         style="fill:#000000;stroke-width:3.08616996"
         d="m 703.11532,430.36215 c -5.83602,-3.08619 -10.80167,-11.58234 -10.80167,-18.48154 0,-6.2466 3.79346,-13.42611 8.8685,-16.78464 4.95182,-3.27695 13.06842,-4.41026 18.57354,-2.59339 5.42888,1.79167 10.73528,7.77223 12.27434,13.83375 2.62204,10.32664 -1.56225,19.87429 -10.63475,24.26622 -6.18142,2.99237 -12.31928,2.91164 -18.27996,-0.2404 z"
         id="path83"
         inkscape:connector-curvature="0" /><path
         style="fill:#000000;stroke-width:3.08616996"
         d="m 70.315416,430.67135 c -4.568517,-2.47946 -10.163463,-10.37145 -11.174862,-15.76283 -2.138834,-11.40094 8.715957,-23.3541 21.234084,-23.38283 5.038415,-0.0127 12.133905,4.40932 15.437265,9.61822 5.839307,9.20763 3.52824,20.20792 -5.8286,27.74303 -5.39688,4.34614 -13.579915,5.08857 -19.667887,1.78441 z"
         id="path84"
         inkscape:connector-curvature="0" /><path
         style="fill:#000000;stroke-width:3.08616996"
         d="m 538.48331,452.45896 c -2.87013,-3.59933 -6.87369,-7.62932 -8.89686,-8.95553 -2.28611,-1.4986 -3.91676,-3.60273 -4.30802,-5.55901 -0.34625,-1.73124 -0.62951,-18.01383 -0.62951,-36.18359 v -33.03591 l 5.80618,-4.2893 c 3.19341,-2.35908 8.60759,-7.38489 12.03147,-11.16841 4.78573,-5.28843 6.44479,-6.52395 7.17459,-5.34309 2.31506,3.74586 3.6513,21.76544 3.67682,49.58351 0.034,37.1404 -1.12649,48.26438 -5.83332,55.91398 -1.89494,3.07965 -3.52579,5.59542 -3.62416,5.5905 -0.0985,-0.005 -2.52708,-2.95384 -5.39719,-6.55315 z"
         id="path85"
         inkscape:connector-curvature="0" /><path
         style="fill:#000000;stroke-width:3.08616996"
         d="m 240.31736,453.95814 c -1.08955,-4.75079 -1.46063,-17.29427 -1.46063,-49.37373 v -43.0049 l 4.19662,-7.62115 c 2.30819,-4.1916 4.3986,-7.83347 4.6454,-8.09302 0.2469,-0.25954 4.6049,3.89523 9.68468,9.23286 l 9.23595,9.70478 v 36.76607 c 0,26.88828 -0.3349,36.76607 -1.24656,36.76607 -0.68563,0 -6.27491,4.94814 -12.42071,10.99593 l -11.1741,10.99589 z"
         id="path86"
         inkscape:connector-curvature="0" /><path
         style="fill:#000000;stroke-width:3.08616996"
         d="m 205.69937,492.50515 c -5.68514,-9.95437 -13.6942,-37.82139 -16.29522,-56.69846 -1.69875,-12.32861 -1.45109,-43.99331 0.44235,-56.5547 5.3884,-35.74827 21.07593,-70.23672 46.16062,-101.4825 33.83666,-42.14729 77.16598,-72.39458 123.69886,-86.35147 13.85277,-4.15494 13.78601,-4.14065 31.73038,-6.79615 8.46326,-1.25247 26.31614,-2.69248 40.6703,-3.28048 30.05327,-1.23106 130.64913,-1.90191 130.64837,-0.87122 -0.001,1.39766 -24.64274,28.01584 -46.71454,50.46147 -12.36541,12.57486 -30.30222,31.19217 -39.85958,41.37182 -9.55735,10.17962 -20.59595,21.93794 -24.53024,26.12958 -6.14443,6.5463 -29.30978,32.06366 -29.93699,32.97647 -0.11886,0.17274 -4.4283,-3.96456 -9.57656,-9.19455 l -9.36051,-9.50904 2.60175,-3.41112 c 5.97786,-7.83732 45.81421,-49.92792 74.90469,-79.14332 10.62878,-10.67441 19.32501,-19.88743 19.32501,-20.47343 0,-2.17445 -86.51559,0.0602 -104.5183,2.69948 -13.99056,2.05118 -31.46001,6.33257 -42.60279,10.44105 -33.95519,12.5197 -65.98407,37.36721 -95.79481,74.31617 -22.65955,28.08536 -32.87809,49.49342 -37.94447,79.49443 -2.63382,15.59643 -3.19844,41.77295 -1.17829,54.62916 2.42076,15.4058 5.81462,30.67557 8.42999,37.92847 l 2.68426,7.44396 -4.45407,3.81255 c -2.44975,2.09689 -6.69539,6.95343 -9.43475,10.79229 -2.73936,3.83885 -5.17268,6.97975 -5.40742,6.97975 -0.23486,0 -1.89435,-2.56962 -3.68804,-5.71021 z"
         id="path87"
         inkscape:connector-curvature="0" /><path
         style="fill:#000000;stroke-width:3.08616996"
         d="m 513.21722,493.60599 c -10.06815,-11.93103 -40.84671,-45.68496 -54.36984,-59.62582 -6.67989,-6.88621 -14.7934,-15.46 -18.03005,-19.0528 -3.23666,-3.59281 -12.67865,-13.58449 -20.98224,-22.20365 -8.30361,-8.61923 -19.34191,-20.60117 -24.52957,-26.62661 -21.14886,-24.56423 -78.78499,-83.65404 -86.22559,-88.40039 -2.6946,-1.71888 -5.10854,-3.2732 -5.36429,-3.45406 -1.52717,-1.07992 19.61919,-17.72583 22.51824,-17.72583 1.31024,0 37.31374,37.52471 46.83827,48.81722 4.02585,4.77312 19.81295,21.82246 35.08241,37.88737 15.26945,16.06492 30.70226,32.40166 34.29507,36.30391 10.57295,11.48356 28.76065,30.36044 56.12924,58.25625 27.41531,27.9434 38.40571,40.44156 37.25256,42.36318 -3.07108,5.11759 -14.76597,21.32312 -15.34937,21.26954 -0.40287,-0.0369 -3.67201,-3.55073 -7.26484,-7.80831 z"
         id="path88"
         inkscape:connector-curvature="0" /><path
         style="fill:#000000;stroke-width:3.08616996"
         d="m 470.80049,493.71247 c -15.06893,-15.18802 -31.7741,-32.75886 -37.12257,-39.04631 -5.34844,-6.28743 -19.30582,-20.98531 -31.0164,-32.66197 -11.71057,-11.67664 -25.65426,-26.37453 -30.98602,-32.66194 -5.33175,-6.28743 -18.53485,-20.49539 -29.34024,-31.57325 -40.91861,-41.95035 -57.20744,-60.39694 -57.20744,-64.78569 0,-2.28468 10.35573,-12.79533 12.16005,-12.34193 2.0626,0.51826 54.18774,56.73818 68.95347,74.37022 2.9924,3.57324 9.8749,10.9222 15.29444,16.33098 5.41958,5.40879 11.54372,11.84016 13.60916,14.29191 7.59503,9.01547 27.10314,29.84474 47.31869,50.52323 47.17006,48.25034 57.41521,59.64254 64.53363,71.75885 l 2.82105,4.80183 -3.7442,3.16737 c -7.76125,6.56545 -5.10131,8.23752 -35.27362,-22.1733 z"
         id="path89"
         inkscape:connector-curvature="0" /><path
         style="fill:#000000;stroke-width:3.08616996"
         d="m 171.00674,529.51649 c -9.8483,-14.35248 -24.48405,-51.21799 -28.96213,-72.95185 -14.75914,-71.6314 3.60639,-145.27799 52.22948,-209.44259 25.5011,-33.65209 49.18328,-56.23181 79.64519,-75.93749 9.98333,-6.45823 34.80503,-19.34427 44.95923,-23.34041 22.65557,-8.91598 52.51377,-16.49503 72.94506,-18.51602 13.94528,-1.37941 59.15767,-1.76559 167.54588,-1.43103 l 90.79019,0.28023 -0.0683,42.12298 -0.0683,42.12298 -4.16786,4.57543 c -29.57821,32.47084 -61.7098,67.04399 -77.20133,83.06746 -7.23652,7.48506 -23.96175,24.87757 -37.16712,38.65 -13.20543,13.77246 -30.18975,31.31926 -37.74298,38.99289 -7.55323,7.67361 -13.73314,14.41013 -13.73314,14.97007 0,2.23217 -1.98916,0.6142 -10.17565,-8.27684 l -8.54256,-9.27771 4.18763,-5.1247 c 2.30321,-2.8186 14.96608,-16.29624 28.13973,-29.95032 13.17366,-13.65408 35.71041,-37.51444 50.0817,-53.02297 14.37123,-15.50853 33.23354,-35.70584 41.91616,-44.88287 8.68264,-9.17707 20.79443,-22.36342 26.91511,-29.30304 l 11.12851,-12.61746 -1.05142,-6.42038 c -0.57829,-3.53124 -1.05541,-13.27942 -1.06025,-21.66267 l -0.009,-15.24225 -92.26753,-0.36725 c -126.74078,-0.50448 -149.5268,1.03118 -185.89848,12.52839 -13.71966,4.33685 -41.30135,17.22436 -53.65075,25.06829 -19.3031,12.26063 -48.86278,38.63929 -64.93083,57.94335 -35.29509,42.40334 -51.86305,80.96714 -57.85755,134.66975 -4.69073,42.02278 2.1723,80.55533 20.8814,117.23918 l 4.88318,9.57474 -5.04077,5.60653 c -2.77242,3.08361 -6.55577,7.71621 -8.40746,10.29462 -1.8517,2.57844 -3.75006,4.68809 -4.21861,4.68809 -0.46851,0 -2.28062,-2.08222 -4.02686,-4.62713 z"
         id="path90"
         inkscape:connector-curvature="0" /><path
         style="fill:#000000;stroke-width:3.08616996"
         d="m 462.97986,547.4262 c -3.70381,-5.93073 -23.5384,-27.52196 -59.70935,-64.99735 -15.02693,-15.56886 -30.47394,-31.73653 -34.3267,-35.92817 -3.85273,-4.19161 -13.14156,-14.01832 -20.64181,-21.8371 -7.50029,-7.81877 -19.22603,-20.31196 -26.05724,-27.76265 -6.83121,-7.4507 -18.0996,-19.45026 -25.04085,-26.66567 -29.82057,-30.99848 -37.32318,-39.10277 -38.7452,-41.85271 -1.45464,-2.8129 -1.24693,-3.24014 5.87144,-12.07783 4.05868,-5.03899 8.10976,-9.76437 9.00233,-10.50085 1.36714,-1.12805 3.94694,1.35999 16.36868,15.78661 8.11014,9.41914 22.03476,24.93186 30.94356,34.47274 32.39211,34.69004 40.94556,43.89891 54.67496,58.86423 7.69091,8.38324 26.6763,28.25045 42.18981,44.14939 15.51346,15.89893 35.71484,36.83245 44.89197,46.51893 9.17709,9.68646 19.10307,19.1782 22.05771,21.09277 l 5.37209,3.48098 -2.46053,2.65923 c -4.46675,4.8275 -19.64229,16.55712 -21.42122,16.55712 -0.96017,0 -2.29657,-0.88183 -2.96965,-1.95967 z"
         id="path91"
         inkscape:connector-curvature="0" /><path
         style="fill:#000000;stroke-width:3.08616996"
         d="M 380.93625,553.27767 V 524.6444 l 7.59916,-5.65077 c 4.17953,-3.10795 8.05783,-6.47036 8.61843,-7.47207 0.89151,-1.59307 1.79407,-1.21078 7.20377,3.05146 l 6.18461,4.87271 -0.13943,28.25058 c -0.0766,15.53784 -0.31545,28.42665 -0.53066,28.64186 -0.44321,0.44317 -18.63762,4.09358 -24.85321,4.98635 l -4.08274,0.5864 z"
         id="path92"
         inkscape:connector-curvature="0" /><path
         style="fill:#000000;stroke-width:3.08616996"
         d="m 186.05323,633.62205 c -2.69464,-0.85709 -5.73944,-1.34897 -6.76621,-1.09307 -2.93358,0.73119 2.26734,-8.66836 8.72141,-15.76201 2.93623,-3.22724 10.67902,-12.4935 17.20613,-20.59165 10.96707,-13.60671 24.55723,-28.59899 69.02594,-76.14741 9.28142,-9.92426 26.42897,-28.3102 38.10562,-40.85763 11.67666,-12.54748 23.43499,-25.1625 26.12957,-28.03341 l 4.8993,-5.21983 8.10414,7.64076 c 4.45727,4.20243 8.55533,7.64077 9.10675,7.64077 0.55144,0 -4.37582,5.51169 -10.94941,12.24823 -19.46285,19.94516 -60.13592,63.97083 -87.70238,94.93147 -36.63964,41.15098 -57.40736,63.10321 -61.94549,65.47857 -3.5909,1.8796 -7.4949,1.81381 -13.93537,-0.23484 z"
         id="path93"
         inkscape:connector-curvature="0" /><path
         style="fill:#000000;stroke-width:3.08616996"
         d="m 239.12888,636.84669 c -14.46128,-0.48761 -15.1063,-0.99383 -8.86008,-6.95326 2.16286,-2.06356 8.8785,-9.63111 14.92362,-16.81673 12.02242,-14.29067 33.54932,-38.2297 52.81297,-58.73086 6.78325,-7.21901 25.44051,-27.3334 41.4606,-44.6987 16.02009,-17.36526 29.95869,-32.2571 30.97469,-33.09301 1.65013,-1.35756 2.80248,-0.60242 10.79853,7.07678 4.92318,4.72807 9.08327,8.87009 9.24464,9.20445 0.30911,0.64048 -3.84324,5.21882 -49.28631,54.3426 -15.56889,16.82991 -30.66609,33.39782 -33.54937,36.81757 -2.88327,3.41979 -8.67369,10.25186 -12.86761,15.18241 -4.48247,5.2698 -7.30369,9.48498 -6.84503,10.22715 1.36631,2.21071 59.81448,-0.67325 77.75847,-3.83678 33.18999,-5.85145 52.18694,-11.00001 72.40068,-19.62217 15.73323,-6.71098 23.93516,-11.26114 36.47253,-20.23371 38.80205,-27.76937 67.35634,-60.34732 85.40279,-97.4371 7.65349,-15.72978 9.96843,-22.89107 12.58645,-38.93679 2.47408,-15.16352 2.98945,-45.58954 0.99662,-58.84058 -1.49365,-9.93165 -5.82493,-27.32467 -8.75418,-35.15376 -1.24136,-3.31783 -2.08669,-6.15734 -1.87851,-6.30993 0.20801,-0.15272 2.00977,-1.40475 4.0036,-2.78258 1.99379,-1.37782 6.07732,-5.87667 9.07453,-9.99746 2.9972,-4.12077 5.90997,-7.20771 6.47279,-6.85988 2.32176,1.43493 8.72578,16.28248 12.24252,28.38388 6.11948,21.05762 8.68554,38.42225 8.74613,59.18512 0.0579,19.85228 -1.12834,29.25946 -6.04077,47.90422 -11.60269,44.03767 -34.07398,78.69166 -78.30266,120.75414 -22.39631,21.29939 -29.34136,26.22266 -55.39459,39.26842 -39.16487,19.61126 -68.05992,28.4304 -100.02351,30.52844 -17.31354,1.13644 -103.81084,2.12805 -124.56954,1.42812 z"
         id="path94"
         inkscape:connector-curvature="0" /><path
         style="fill:#000000;stroke-width:3.08616996"
         d="m 142.26661,646.63812 -0.30708,-45.53748 2.53016,-3.98527 c 4.32087,-6.80584 45.2745,-53.84194 64.30795,-73.8591 9.9641,-10.47902 22.23864,-23.46216 27.27683,-28.85138 40.57808,-43.40559 75.62741,-80.04914 76.31833,-79.78969 0.45732,0.17165 4.98692,4.3111 10.06577,9.19861 l 9.23431,8.88638 -11.48194,12.34391 c -6.31504,6.78914 -20.88714,22.1425 -32.38244,34.11852 -11.49528,11.97608 -26.42754,27.89877 -33.18288,35.3838 -6.75529,7.48507 -16.59516,18.01853 -21.86639,23.40776 -5.27121,5.3892 -16.10377,17.23277 -24.07231,26.31894 -7.96853,9.08622 -20.05338,22.47589 -26.85518,29.75488 -11.39427,12.19357 -12.3148,13.49526 -11.70391,16.54986 0.3647,1.82346 0.66309,14.30647 0.66309,27.74001 0,16.78492 0.35766,24.20359 1.14343,23.71795 0.62891,-0.38868 41.90547,-0.86849 91.7257,-1.06628 92.41511,-0.36686 103.32297,-0.78832 127.92357,-4.94273 42.21344,-7.12871 87.6206,-27.45689 123.79103,-55.41947 32.96743,-25.48645 68.1683,-66.74617 84.10497,-98.58132 10.16602,-20.30767 19.56789,-46.00721 22.50669,-61.52084 4.78486,-25.25896 4.81104,-58.5125 0.0668,-84.57307 -4.0364,-22.17108 -7.40733,-32.92141 -15.57359,-49.66614 l -7.33027,-15.03054 9.42305,-9.97673 9.423,-9.97672 4.8909,7.58754 c 12.8067,19.86786 22.69941,47.13608 27.6367,76.17766 8.94408,52.61013 1.01451,107.07797 -22.42785,154.0556 -8.16065,16.35367 -11.61329,22.07195 -20.59792,34.1145 -21.59793,28.94875 -33.59496,42.2204 -57.11961,63.1883 -28.64445,25.53117 -45.10298,36.79514 -75.8301,51.89685 -21.50991,10.57164 -59.48532,23.64031 -77.29998,26.60162 -15.06607,2.50438 -52.83314,3.80727 -126.29293,4.35681 -70.9738,0.53095 -109.7244,1.26954 -121.63096,2.31842 l -6.76971,0.59632 z"
         id="path95"
         inkscape:connector-curvature="0" /><path
         style="fill:#000000;stroke-width:3.08616996"
         d="m 642.77633,691.93237 c -2.99401,-0.40717 -11.40124,-0.48397 -18.68272,-0.17074 -12.75607,0.54893 -13.41299,0.46776 -18.00675,-2.22434 -2.62225,-1.53674 -8.9291,-7.12083 -14.01529,-12.4091 -5.08616,-5.28825 -16.44316,-16.54128 -25.23777,-25.00674 -8.7946,-8.46543 -16.5681,-16.66012 -17.27446,-18.21042 -1.21035,-2.65637 -0.82377,-3.30596 6.71442,-11.28218 4.39928,-4.65494 8.40689,-8.63179 8.90573,-8.83742 0.49887,-0.20554 7.62876,6.21799 15.84421,14.27472 18.77857,18.41576 38.3964,36.72521 39.34955,36.72521 0.65783,0 0.22283,-27.33064 -0.4467,-28.07884 -0.15563,-0.17384 -2.32914,-0.5628 -4.82996,-0.86423 -6.90461,-0.83223 -9.66256,-2.20396 -17.77439,-8.84055 -8.15885,-6.67497 -21.75259,-20.85393 -21.26495,-22.18032 0.16856,-0.45835 3.44414,-4.09292 7.27906,-8.07681 l 6.9727,-7.24338 2.28153,2.65293 c 1.25487,1.45914 7.67081,8.63989 14.25765,15.95722 6.5868,7.31736 12.26298,14.1002 12.61369,15.07295 0.36501,1.01234 0.94697,-0.48778 1.36095,-3.50793 1.38937,-10.13657 1.09753,-11.20769 -4.55293,-16.71012 -2.90191,-2.82588 -6.63431,-7.34264 -8.29431,-10.03724 -1.65998,-2.69462 -4.49303,-6.45746 -6.29564,-8.36188 l -3.27748,-3.46258 9.12214,-12.08951 c 6.69551,-8.87349 9.62898,-11.96181 11.02744,-11.60941 1.31508,0.33139 1.90528,-0.16146 1.90528,-1.59092 0,-1.13907 3.2594,-5.62274 7.24309,-9.96369 3.98369,-4.34096 9.18682,-10.46712 11.5625,-13.61367 2.37566,-3.14654 4.69464,-5.72101 5.15328,-5.72101 0.45863,0 1.61604,1.64832 2.57204,3.66293 1.51946,3.20205 1.83127,13.59086 2.4782,82.57018 0.44331,47.26995 0.34182,79.1097 -0.25307,79.41219 -0.54629,0.27775 -3.4429,0.17183 -6.43693,-0.23549 z"
         id="path96"
         inkscape:connector-curvature="0" /></g><g
       id="g869"
       transform="translate(-3917.5385,2466.8273)"><circle
         style="opacity:0.52600002;fill:#0000ff;fill-opacity:1;stroke:none;stroke-width:10.15968704;stroke-linecap:round;stroke-linejoin:round;stroke-miterlimit:4;stroke-dasharray:none;stroke-opacity:1;paint-order:markers stroke fill"
         id="circle851"
         cx="399.5209"
         cy="381.48572"
         r="258.82578" /><rect
         y="122.37069"
         x="392.25894"
         height="77.995094"
         width="258.30441"
         id="rect849"
         style="opacity:0.52600002;fill:#0000ff;fill-opacity:1;stroke:none;stroke-width:10.79130268;stroke-linecap:round;stroke-linejoin:round;stroke-miterlimit:4;stroke-dasharray:none;stroke-opacity:1;paint-order:markers stroke fill" /><circle
         r="179.67972"
         cy="388.81552"
         cx="397.51953"
         id="path847"
         style="opacity:0.52600002;fill:#0000ff;fill-opacity:1;stroke:none;stroke-width:7.05296659;stroke-linecap:round;stroke-linejoin:round;stroke-miterlimit:4;stroke-dasharray:none;stroke-opacity:1;paint-order:markers stroke fill" /><rect
         style="opacity:0.52600002;fill:#0000ff;fill-opacity:1;stroke:none;stroke-width:10.85623074;stroke-linecap:round;stroke-linejoin:round;stroke-miterlimit:4;stroke-dasharray:none;stroke-opacity:1;paint-order:markers stroke fill"
         id="rect853"
         width="274.40424"
         height="74.305107"
         x="139.90886"
         y="566.63953" /><rect
         transform="rotate(46.931747)"
         style="opacity:0.52600002;fill:#0000ff;fill-opacity:1;stroke:none;stroke-width:21.25561714;stroke-linecap:round;stroke-linejoin:round;stroke-miterlimit:4;stroke-dasharray:none;stroke-opacity:1;paint-order:markers stroke fill"
         id="rect857"
         width="802.56372"
         height="97.391129"
         x="155.24187"
         y="-71.846535" /></g><path
       style="opacity:1;fill:#ff0000;fill-opacity:1;stroke:none;stroke-width:80.33618927;stroke-linecap:round;stroke-linejoin:round;stroke-miterlimit:4;stroke-dasharray:none;stroke-opacity:1;paint-order:markers stroke fill"
       d="M 4098.3516 -3938.9238 L 4098.3516 -3667.6797 L 4098.3516 -3346.4062 L 4098.3516 -2854.4512 L 4238.8789 -2854.4512 L 4238.8789 -3392.6797 L 4238.8789 -3517.3418 L 4469.8047 -3270.2949 L 4469.8047 -2241.0879 L 4574.9961 -2241.0879 L 4574.9961 -3157.7598 L 5828.4277 -1816.8281 L 6018.4648 -1816.8281 L 6018.4648 -2152.5625 L 6018.4648 -2549.0137 L 6018.4648 -3104.9258 L 5904.5703 -3104.9258 L 5904.5703 -2462.998 L 5904.5703 -2274.4082 L 5653.1953 -2543.332 L 5653.1953 -3460.6367 L 5548.0059 -3460.6367 L 5548.0059 -2655.8652 L 4348.6719 -3938.9238 L 4098.3516 -3938.9238 z "
       transform="scale(0.26458333)"
       id="rect879" /><g
       id="g911"
       transform="translate(-2850.707,1729.2742)"><rect
         transform="rotate(46.931747)"
         style="opacity:0.52600002;fill:#0000ff;fill-opacity:1;stroke:none;stroke-width:21.25561714;stroke-linecap:round;stroke-linejoin:round;stroke-miterlimit:4;stroke-dasharray:none;stroke-opacity:1;paint-order:markers stroke fill"
         id="rect896"
         width="802.56372"
         height="97.391129"
         x="-465.4025"
         y="536.40601" /><rect
         style="opacity:0.52600002;fill:#0000ff;fill-opacity:1;stroke:none;stroke-width:11.64166641;stroke-linecap:round;stroke-linejoin:round;stroke-miterlimit:4;stroke-dasharray:none;stroke-opacity:1;paint-order:markers stroke fill"
         id="rect898"
         width="73.057907"
         height="211.34612"
         x="-801.89758"
         y="47.515579" /><rect
         y="27.946493"
         x="-748.40875"
         height="48.705284"
         width="140.02766"
         id="rect900"
         style="opacity:0.52600002;fill:#0000ff;fill-opacity:1;stroke:none;stroke-width:7.73712015;stroke-linecap:round;stroke-linejoin:round;stroke-miterlimit:4;stroke-dasharray:none;stroke-opacity:1;paint-order:markers stroke fill" /><rect
         style="opacity:0.52600002;fill:#0000ff;fill-opacity:1;stroke:none;stroke-width:11.64166641;stroke-linecap:round;stroke-linejoin:round;stroke-miterlimit:4;stroke-dasharray:none;stroke-opacity:1;paint-order:markers stroke fill"
         id="rect902"
         width="79.33461"
         height="199.25902"
         x="-220.80974"
         y="504.05331" /><rect
         style="opacity:0.52600002;fill:#0000ff;fill-opacity:1;stroke:none;stroke-width:11.64166641;stroke-linecap:round;stroke-linejoin:round;stroke-miterlimit:4;stroke-dasharray:none;stroke-opacity:1;paint-order:markers stroke fill"
         id="rect904"
         width="170.96916"
         height="73.799637"
         x="-351.18906"
         y="638.12262" /></g><g
       id="g959"
       transform="translate(-2599.2513,656.54028)"><path
         inkscape:connector-curvature="0"
         style="opacity:0.52600002;fill:#0000ff;fill-opacity:1;stroke:none;stroke-width:21.25561714;stroke-linecap:round;stroke-linejoin:round;stroke-miterlimit:4;stroke-dasharray:none;stroke-opacity:1;paint-order:markers stroke fill"
         d="m -770.53445,698.52448 -1.76165,1.64692 h 3.30109 z m -19.1642,50.35196 v 71.76668 l 457.74932,489.70448 h 50.28065 v -88.8297 L -723.46807,748.87644 Z"
         id="path921" /><rect
         style="opacity:0.52600002;fill:#0000ff;fill-opacity:1;stroke:none;stroke-width:11.64166641;stroke-linecap:round;stroke-linejoin:round;stroke-miterlimit:4;stroke-dasharray:none;stroke-opacity:1;paint-order:markers stroke fill"
         id="rect923"
         width="37.18137"
         height="85.003563"
         x="-789.69867"
         y="820.64313" /><rect
         style="opacity:0.52600002;fill:#0000ff;fill-opacity:1;stroke:none;stroke-width:11.64166641;stroke-linecap:round;stroke-linejoin:round;stroke-miterlimit:4;stroke-dasharray:none;stroke-opacity:1;paint-order:markers stroke fill"
         id="rect925"
         width="30.134785"
         height="104.89447"
         x="-311.8035"
         y="1116.6234" /></g><g
       id="g954"
       transform="translate(-3309.0913,-258.54082)"><path
         inkscape:connector-curvature="0"
         style="opacity:0.52600002;fill:#0000ff;fill-opacity:1;stroke:none;stroke-width:21.25561714;stroke-linecap:round;stroke-linejoin:round;stroke-miterlimit:4;stroke-dasharray:none;stroke-opacity:1;paint-order:markers stroke fill"
         d="m 234.85889,856.02884 -1.76165,1.64693 h 3.30109 z m -19.16421,50.35196 v 71.76668 85.00362 h 37.1812 v -45.2267 L 673.444,1467.852 h 50.28065 v -88.8298 -104.8943 h -30.13458 v 72.656 L 281.92527,906.3808 Z"
         id="path939" /><rect
         style="opacity:0.52600002;fill:#0000ff;fill-opacity:1;stroke:none;stroke-width:11.64166641;stroke-linecap:round;stroke-linejoin:round;stroke-miterlimit:4;stroke-dasharray:none;stroke-opacity:1;paint-order:markers stroke fill"
         id="rect941"
         width="27.831585"
         height="331.36981"
         x="313.9751"
         y="1024.2303" /><rect
         y="1032.9277"
         x="599.24884"
         height="331.36981"
         width="27.831585"
         id="rect943"
         style="opacity:0.52600002;fill:#0000ff;fill-opacity:1;stroke:none;stroke-width:11.64166641;stroke-linecap:round;stroke-linejoin:round;stroke-miterlimit:4;stroke-dasharray:none;stroke-opacity:1;paint-order:markers stroke fill" /><rect
         style="opacity:0.52600002;fill:#0000ff;fill-opacity:1;stroke:none;stroke-width:15.06818771;stroke-linecap:round;stroke-linejoin:round;stroke-miterlimit:4;stroke-dasharray:none;stroke-opacity:1;paint-order:markers stroke fill"
         id="rect945"
         width="37.18137"
         height="142.4062"
         x="215.69469"
         y="1050.9081" /><rect
         style="opacity:0.52600002;fill:#0000ff;fill-opacity:1;stroke:none;stroke-width:14.81367493;stroke-linecap:round;stroke-linejoin:round;stroke-miterlimit:4;stroke-dasharray:none;stroke-opacity:1;paint-order:markers stroke fill"
         id="rect947"
         width="30.134785"
         height="169.84311"
         x="693.5899"
         y="1127.043" /></g><path
       id="path962"
       d="m -2598.5909,205.29947 -1.7616,1.64693 h 3.3011 z m -19.1642,50.35197 v 71.76667 85.00359 130.16312 h 37.1812 V 400.17853 367.19501 l 61.0991,65.3645 v 272.31101 h 27.8319 v -242.5361 l 331.6371,354.78817 h 50.2807 V 728.29287 623.39849 476.31341 h -30.1346 v 169.8434 49.89771 l -66.5096,-71.15275 V 382.19823 h -27.8314 v 212.92913 l -317.3238,-339.47592 z"
       style="opacity:0.52600002;fill:#0000ff;fill-opacity:1;stroke:none;stroke-width:21.25561714;stroke-linecap:round;stroke-linejoin:round;stroke-miterlimit:4;stroke-dasharray:none;stroke-opacity:1;paint-order:markers stroke fill"
       inkscape:connector-curvature="0" /><g
       id="g984"
       transform="translate(4124.2669,2884.2426)"><path
         style="opacity:0.52600002;fill:#0000ff;fill-opacity:1;stroke:none;stroke-width:10.15968704;stroke-linecap:round;stroke-linejoin:round;stroke-miterlimit:4;stroke-dasharray:none;stroke-opacity:1;paint-order:markers stroke fill"
         d="m 1451.6679,-61.596077 a 258.82577,258.82577 0 0 0 -258.8256,258.825547 258.82577,258.82577 0 0 0 258.8256,258.82604 258.82577,258.82577 0 0 0 258.826,-258.82604 258.82577,258.82577 0 0 0 -258.826,-258.825547 z m 0,79.14608 a 179.67972,179.67972 0 0 1 179.68,179.679467 179.67972,179.67972 0 0 1 -179.68,179.67999 179.67972,179.67972 0 0 1 -179.6795,-179.67999 179.67972,179.67972 0 0 1 179.6795,-179.679467 z"
         id="path964"
         inkscape:connector-curvature="0" /><rect
         y="-61.802929"
         x="1443.4001"
         height="77.995094"
         width="258.30441"
         id="rect966"
         style="opacity:0.52600002;fill:#0000ff;fill-opacity:1;stroke:none;stroke-width:10.79130268;stroke-linecap:round;stroke-linejoin:round;stroke-miterlimit:4;stroke-dasharray:none;stroke-opacity:1;paint-order:markers stroke fill" /><rect
         style="opacity:0.52600002;fill:#0000ff;fill-opacity:1;stroke:none;stroke-width:9.39492607;stroke-linecap:round;stroke-linejoin:round;stroke-miterlimit:4;stroke-dasharray:none;stroke-opacity:1;paint-order:markers stroke fill"
         id="rect968"
         width="268.31607"
         height="56.910366"
         x="1193.0643"
         y="399.14349" /></g><g
       id="g979"
       transform="translate(4402.5828,1965.8003)"><path
         style="opacity:0.52600002;fill:#0000ff;fill-opacity:1;stroke:none;stroke-width:10.15968704;stroke-linecap:round;stroke-linejoin:round;stroke-miterlimit:4;stroke-dasharray:none;stroke-opacity:1;paint-order:markers stroke fill"
         d="M 1092.2821,299.69628 A 258.82577,258.82577 0 0 0 833.45656,558.52183 258.82577,258.82577 0 0 0 1092.2821,817.34787 258.82577,258.82577 0 0 0 1351.1082,558.52183 258.82577,258.82577 0 0 0 1092.2821,299.69628 Z m 0,79.14608 a 179.67972,179.67972 0 0 1 179.68,179.67947 179.67972,179.67972 0 0 1 -179.68,179.67999 A 179.67972,179.67972 0 0 1 912.60265,558.52183 179.67972,179.67972 0 0 1 1092.2821,378.84236 Z"
         id="path970"
         inkscape:connector-curvature="0" /><rect
         y="299.48944"
         x="1084.0144"
         height="73.584595"
         width="258.30441"
         id="rect972"
         style="opacity:0.52600002;fill:#0000ff;fill-opacity:1;stroke:none;stroke-width:10.48174667;stroke-linecap:round;stroke-linejoin:round;stroke-miterlimit:4;stroke-dasharray:none;stroke-opacity:1;paint-order:markers stroke fill" /><rect
         style="opacity:0.52600002;fill:#0000ff;fill-opacity:1;stroke:none;stroke-width:9.39492607;stroke-linecap:round;stroke-linejoin:round;stroke-miterlimit:4;stroke-dasharray:none;stroke-opacity:1;paint-order:markers stroke fill"
         id="rect974"
         width="268.31607"
         height="56.910366"
         x="833.67859"
         y="760.43585" /></g><g
       id="g1001"
       transform="translate(4270.3827,1809.2476)"><path
         inkscape:connector-curvature="0"
         style="opacity:0.52600002;fill:#0000ff;fill-opacity:1;stroke:none;stroke-width:10.15968704;stroke-linecap:round;stroke-linejoin:round;stroke-miterlimit:4;stroke-dasharray:none;stroke-opacity:1;paint-order:markers stroke fill"
         d="m 1105.9423,-169.65008 v 0.62063 A 258.82577,258.82577 0 0 0 855.3845,89.382178 258.82577,258.82577 0 0 0 952.37445,291.29593 h -96.76826 v 56.91074 h 258.55991 a 258.82577,258.82577 0 0 0 0.044,0.002 258.82577,258.82577 0 0 0 0.031,-0.002 h 9.6815 v -0.48422 A 258.82577,258.82577 0 0 0 1373.0361,89.382178 258.82577,258.82577 0 0 0 1294.7427,-96.065945 h 69.5038 v -73.584135 z m 8.2677,79.352774 A 179.67972,179.67972 0 0 1 1293.89,89.382178 179.67972,179.67972 0 0 1 1114.21,269.06215 179.67972,179.67972 0 0 1 934.53057,89.382178 179.67972,179.67972 0 0 1 1114.21,-90.297306 Z"
         id="path995" /><rect
         style="opacity:0.52600002;fill:#0000ff;fill-opacity:1;stroke:none;stroke-width:11.7332592;stroke-linecap:round;stroke-linejoin:round;stroke-miterlimit:4;stroke-dasharray:none;stroke-opacity:1;paint-order:markers stroke fill"
         id="rect997"
         width="115.83906"
         height="798.38098"
         x="830.57098"
         y="-1060.725"
         transform="rotate(42.192831)" /></g><g
       id="g1026"
       transform="translate(3882.0615,963.38629)"><rect
         style="opacity:0.52600002;fill:#0000ff;fill-opacity:1;stroke:none;stroke-width:11.7332592;stroke-linecap:round;stroke-linejoin:round;stroke-miterlimit:4;stroke-dasharray:none;stroke-opacity:1;paint-order:markers stroke fill"
         id="rect1011"
         width="115.83906"
         height="798.38098"
         x="1154.0199"
         y="-1001.7635"
         transform="rotate(42.192831)" /><rect
         style="opacity:0.52600002;fill:#0000ff;fill-opacity:1;stroke:none;stroke-width:15.44586563;stroke-linecap:round;stroke-linejoin:round;stroke-miterlimit:4;stroke-dasharray:none;stroke-opacity:1;paint-order:markers stroke fill"
         id="rect1013"
         width="152.63885"
         height="92.626999"
         x="1438.1102"
         y="-1.4780705" /><rect
         style="opacity:0.52600002;fill:#0000ff;fill-opacity:1;stroke:none;stroke-width:11.64166641;stroke-linecap:round;stroke-linejoin:round;stroke-miterlimit:4;stroke-dasharray:none;stroke-opacity:1;paint-order:markers stroke fill"
         id="rect1015"
         width="79.580948"
         height="180.03557"
         x="1564.8456"
         y="50.559658" /><rect
         style="opacity:0.52600002;fill:#0000ff;fill-opacity:1;stroke:none;stroke-width:11.9352951;stroke-linecap:round;stroke-linejoin:round;stroke-miterlimit:4;stroke-dasharray:none;stroke-opacity:1;paint-order:markers stroke fill"
         id="rect1017"
         width="232.65466"
         height="116.97964"
         x="982.36804"
         y="609.36572" /><rect
         style="opacity:0.52600002;fill:#0000ff;fill-opacity:1;stroke:none;stroke-width:11.64166641;stroke-linecap:round;stroke-linejoin:round;stroke-miterlimit:4;stroke-dasharray:none;stroke-opacity:1;paint-order:markers stroke fill"
         id="rect1019"
         width="110.08447"
         height="169.73917"
         x="945.46124"
         y="523.41669" /></g><g
       id="g1046"
       transform="translate(4511.8185,515.66849)"><path
         style="opacity:0.52600002;fill:#0000ff;fill-opacity:1;stroke:none;stroke-width:38.39881897;stroke-linecap:round;stroke-linejoin:round;stroke-miterlimit:4;stroke-dasharray:none;stroke-opacity:1;paint-order:markers stroke fill"
         d="m 1484.4395,476.44922 v 2.3457 A 978.23914,978.23914 0 0 0 537.44922,1455.4688 978.23914,978.23914 0 0 0 904.02539,2218.6074 H 538.28711 v 215.0957 h 977.23439 a 978.23914,978.23914 0 0 0 0.166,0.01 978.23914,978.23914 0 0 0 0.1172,-0.01 h 36.5918 v -1.8301 A 978.23914,978.23914 0 0 0 2493.9277,1455.4688 978.23914,978.23914 0 0 0 2198.0156,754.5625 H 2460.707 V 476.44922 Z m 31.248,299.91601 A 679.10446,679.10446 0 0 1 2194.793,1455.4688 679.10446,679.10446 0 0 1 1515.6875,2134.5742 679.10446,679.10446 0 0 1 836.58398,1455.4688 679.10446,679.10446 0 0 1 1515.6875,776.36523 Z"
         transform="scale(0.26458333)"
         id="path1028"
         inkscape:connector-curvature="0" /><rect
         style="opacity:0.52600002;fill:#0000ff;fill-opacity:1;stroke:none;stroke-width:11.7332592;stroke-linecap:round;stroke-linejoin:round;stroke-miterlimit:4;stroke-dasharray:none;stroke-opacity:1;paint-order:markers stroke fill"
         id="rect1030"
         width="115.83906"
         height="798.38098"
         x="500.78827"
         y="-362.64178"
         transform="rotate(42.192831)" /><rect
         style="opacity:0.52600002;fill:#0000ff;fill-opacity:1;stroke:none;stroke-width:11.64166641;stroke-linecap:round;stroke-linejoin:round;stroke-miterlimit:4;stroke-dasharray:none;stroke-opacity:1;paint-order:markers stroke fill"
         id="rect1032"
         width="152.63885"
         height="52.619095"
         x="524.88635"
         y="73.319321" /><rect
         style="opacity:0.52600002;fill:#0000ff;fill-opacity:1;stroke:none;stroke-width:11.64166641;stroke-linecap:round;stroke-linejoin:round;stroke-miterlimit:4;stroke-dasharray:none;stroke-opacity:1;paint-order:markers stroke fill"
         id="rect1034"
         width="79.580948"
         height="180.03557"
         x="651.62164"
         y="85.349144" /><rect
         style="opacity:0.52600002;fill:#0000ff;fill-opacity:1;stroke:none;stroke-width:11.9352951;stroke-linecap:round;stroke-linejoin:round;stroke-miterlimit:4;stroke-dasharray:none;stroke-opacity:1;paint-order:markers stroke fill"
         id="rect1036"
         width="232.65466"
         height="116.97964"
         x="69.144096"
         y="644.15521" /><rect
         style="opacity:0.52600002;fill:#0000ff;fill-opacity:1;stroke:none;stroke-width:11.64166641;stroke-linecap:round;stroke-linejoin:round;stroke-miterlimit:4;stroke-dasharray:none;stroke-opacity:1;paint-order:markers stroke fill"
         id="rect1038"
         width="110.08447"
         height="169.73917"
         x="32.237335"
         y="558.20618" /></g><path
       id="path1053"
       d="m 4713.5268,95.376204 -0.1106,0.12196 h -168.8956 v 0.62063 a 258.82577,258.82577 0 0 0 -250.5578,258.411636 258.82577,258.82577 0 0 0 48.4058,150.27866 l -46.808,51.63508 h -1.3761 v 1.51826 l -0.1,0.11006 v 55.52014 h 106.0214 l 0.2155,-0.23772 h 152.4227 a 258.82577,258.82577 0 0 0 0.044,0.002 258.82577,258.82577 0 0 0 0.031,-0.002 h 9.6816 v -0.48422 a 258.82577,258.82577 0 0 0 249.1134,-258.34026 258.82577,258.82577 0 0 0 -44.8019,-145.45988 l 36.572,-40.34327 V 95.376204 Z m -160.7385,79.474726 a 179.67972,179.67972 0 0 1 74.0492,16.15406 l -229.5074,253.17473 a 179.67972,179.67972 0 0 1 -24.2212,-89.64929 179.67972,179.67972 0 0 1 179.6794,-179.6795 z m 158.5479,95.41639 a 179.67972,179.67972 0 0 1 21.1321,84.26311 179.67972,179.67972 0 0 1 -179.68,179.67995 179.67972,179.67972 0 0 1 -68.387,-13.60588 z"
       style="opacity:0.52600002;fill:#0000ff;fill-opacity:1;stroke:none;stroke-width:10.15968704;stroke-linecap:round;stroke-linejoin:round;stroke-miterlimit:4;stroke-dasharray:none;stroke-opacity:1;paint-order:markers stroke fill"
       inkscape:connector-curvature="0" /><path
       id="path1055"
       d="m -2544.5933,1610.9379 -1.7616,1.6469 h 3.3011 z m -19.1642,50.352 v 71.7666 85.0036 130.1631 h 37.1812 v -142.4062 -32.9836 l 61.0991,65.3645 v 272.311 h 27.8319 v -242.5361 l 331.6372,354.7882 h 50.2806 v -88.8297 -104.8944 -147.0851 h -30.1346 v 169.8434 49.8977 l -66.5096,-71.1527 v -242.7035 h -27.8314 v 212.9291 l -317.3238,-339.4759 z"
       style="opacity:0.52600002;fill:#ff0000;fill-opacity:1;stroke:none;stroke-width:21.25561714;stroke-linecap:round;stroke-linejoin:round;stroke-miterlimit:4;stroke-dasharray:none;stroke-opacity:1;paint-order:markers stroke fill"
       inkscape:connector-curvature="0" /><path
       id="path1057"
       d="m -2144.6301,1670.5689 -0.1105,0.1219 h -168.8957 v 0.6207 a 258.82577,258.82577 0 0 0 -250.5578,258.4116 258.82577,258.82577 0 0 0 48.4058,150.2787 l -46.808,51.6351 h -1.3761 v 1.5182 l -0.1,0.1101 v 55.5201 h 106.0214 l 0.2155,-0.2377 h 152.4227 a 258.82577,258.82577 0 0 0 0.044,0 258.82577,258.82577 0 0 0 0.031,0 h 9.6816 v -0.4842 a 258.82577,258.82577 0 0 0 249.1135,-258.3403 258.82577,258.82577 0 0 0 -44.8019,-145.4599 l 36.5719,-40.3432 v -73.3511 z m -160.7385,79.4747 a 179.67972,179.67972 0 0 1 74.0492,16.1541 l -229.5074,253.1747 a 179.67972,179.67972 0 0 1 -24.2213,-89.6493 179.67972,179.67972 0 0 1 179.6795,-179.6795 z m 158.548,95.4164 a 179.67972,179.67972 0 0 1 21.132,84.2631 179.67972,179.67972 0 0 1 -179.68,179.68 179.67972,179.67972 0 0 1 -68.387,-13.6059 z"
       style="opacity:0.52600002;fill:#0000ff;fill-opacity:1;stroke:none;stroke-width:10.15968704;stroke-linecap:round;stroke-linejoin:round;stroke-miterlimit:4;stroke-dasharray:none;stroke-opacity:1;paint-order:markers stroke fill"
       inkscape:connector-curvature="0" /><g
       transform="translate(-887.13174,-366.85165)"
       id="g1063" /><path
       style="opacity:1;fill:#0000ff;fill-opacity:1;stroke:none;stroke-width:14.92954159;stroke-linecap:round;stroke-linejoin:round;stroke-miterlimit:4;stroke-dasharray:none;stroke-opacity:1;paint-order:markers stroke fill"
       d="m 1331.0654,-1023.0298 v 0.6206 a 258.82577,258.82577 0 0 0 -250.5585,258.41156 258.82577,258.82577 0 0 0 30.8492,121.6981 l 58.0368,-64.099 a 179.67972,179.67972 0 0 1 -9.74,-57.5991 179.67972,179.67972 0 0 1 179.6802,-179.6794 h 2.1161 86.339 l -243.945,269.1014 a 179.67972,179.67972 0 0 1 -0.044,-0.086 l -44.9539,49.6492 h 0.069 l -57.0461,62.9289 h -1.1389 v 1.2563 l -0.6594,0.7276 v 55.5206 h 106.0209 l 0.5384,-0.5937 h 152.6607 a 258.82577,258.82577 0 0 0 0.044,0 258.82577,258.82577 0 0 0 0.031,0 h 9.6815 v -0.4843 a 258.82577,258.82577 0 0 0 249.1135,-258.3403 258.82577,258.82577 0 0 0 -28.0866,-115.7743 l -58.5706,64.6886 a 179.67972,179.67972 0 0 1 7.5111,51.0857 179.67972,179.67972 0 0 1 -173.9263,179.4764 v 0.2114 h -86.7192 l 239.4215,-264.1118 a 179.67972,179.67972 0 0 1 0.2595,0.5498 l 43.2371,-47.7531 h -0.7059 l 48.7898,-53.82111 v -73.35045 -0.2336 z"
       id="rect1067"
       inkscape:connector-curvature="0" /><path
       style="opacity:1;fill:#ff0000;fill-opacity:1;stroke:none;stroke-width:21.25561714;stroke-linecap:round;stroke-linejoin:round;stroke-miterlimit:4;stroke-dasharray:none;stroke-opacity:1;paint-order:markers stroke fill"
       d="m 1278.2718,-905.57434 -67.8041,70.08357 165.1837,176.71478 68.1555,-69.70736 z"
       id="path929"
       inkscape:connector-curvature="0" /><g
       id="g1081"
       transform="translate(4209.3226,3060.2455)"><g
         transform="translate(-713.18433,295.888)"
         id="g1071"><path
           id="path1069"
           d="m 1105.9423,-169.65008 v 0.62063 A 258.82577,258.82577 0 0 0 855.3845,89.382178 258.82577,258.82577 0 0 0 952.37445,291.29593 h -96.76826 v 56.91074 h 258.55991 a 258.82577,258.82577 0 0 0 0.044,0.002 258.82577,258.82577 0 0 0 0.031,-0.002 h 9.6815 v -0.48422 A 258.82577,258.82577 0 0 0 1373.0361,89.382178 258.82577,258.82577 0 0 0 1294.7427,-96.065945 h 69.5038 v -73.584135 z m 8.2677,79.352774 A 179.67972,179.67972 0 0 1 1293.89,89.382178 179.67972,179.67972 0 0 1 1114.21,269.06215 179.67972,179.67972 0 0 1 934.53057,89.382178 179.67972,179.67972 0 0 1 1114.21,-90.297306 Z"
           style="opacity:0.52600002;fill:#0000ff;fill-opacity:1;stroke:none;stroke-width:10.15968704;stroke-linecap:round;stroke-linejoin:round;stroke-miterlimit:4;stroke-dasharray:none;stroke-opacity:1;paint-order:markers stroke fill"
           inkscape:connector-curvature="0" /></g><rect
         style="opacity:0.52600002;fill:#0000ff;fill-opacity:1;stroke:none;stroke-width:14.92467594;stroke-linecap:round;stroke-linejoin:round;stroke-miterlimit:4;stroke-dasharray:none;stroke-opacity:1;paint-order:markers stroke fill"
         id="rect1073"
         width="249.88858"
         height="40.702957"
         x="401.02567"
         y="205.5907" /><rect
         y="524.25507"
         x="141.23601"
         height="40.702957"
         width="265.54385"
         id="rect1075"
         style="opacity:0.52600002;fill:#0000ff;fill-opacity:1;stroke:none;stroke-width:15.38508224;stroke-linecap:round;stroke-linejoin:round;stroke-miterlimit:4;stroke-dasharray:none;stroke-opacity:1;paint-order:markers stroke fill" /></g><g
       id="g1095"
       transform="translate(4046.2816,2406.0131)"><g
         transform="translate(-713.18433,295.888)"
         id="g1085"><path
           id="path1083"
           d="m 1105.9423,-169.65008 v 0.62063 A 258.82577,258.82577 0 0 0 855.3845,89.382178 258.82577,258.82577 0 0 0 952.37445,291.29593 h -96.76826 v 56.91074 h 258.55991 a 258.82577,258.82577 0 0 0 0.044,0.002 258.82577,258.82577 0 0 0 0.031,-0.002 h 9.6815 v -0.48422 A 258.82577,258.82577 0 0 0 1373.0361,89.382178 258.82577,258.82577 0 0 0 1294.7427,-96.065945 h 69.5038 v -73.584135 z m 8.2677,79.352774 A 179.67972,179.67972 0 0 1 1293.89,89.382178 179.67972,179.67972 0 0 1 1114.21,269.06215 179.67972,179.67972 0 0 1 934.53057,89.382178 179.67972,179.67972 0 0 1 1114.21,-90.297306 Z"
           style="opacity:0.52600002;fill:#0000ff;fill-opacity:1;stroke:none;stroke-width:10.15968704;stroke-linecap:round;stroke-linejoin:round;stroke-miterlimit:4;stroke-dasharray:none;stroke-opacity:1;paint-order:markers stroke fill"
           inkscape:connector-curvature="0" /></g><rect
         style="opacity:0.52600002;fill:#0000ff;fill-opacity:1;stroke:none;stroke-width:12.97987843;stroke-linecap:round;stroke-linejoin:round;stroke-miterlimit:4;stroke-dasharray:none;stroke-opacity:1;paint-order:markers stroke fill"
         id="rect1087"
         width="189.00699"
         height="40.702957"
         x="401.02567"
         y="205.5907" /><rect
         y="524.25507"
         x="250.82288"
         height="40.702957"
         width="155.95699"
         id="rect1089"
         style="opacity:0.52600002;fill:#0000ff;fill-opacity:1;stroke:none;stroke-width:11.79055119;stroke-linecap:round;stroke-linejoin:round;stroke-miterlimit:4;stroke-dasharray:none;stroke-opacity:1;paint-order:markers stroke fill" /></g><g
       id="g1121"
       transform="translate(3252.1495,2250.2372)"><g
         transform="translate(-109.5868,-128.54369)"
         id="g1101"><path
           id="path1099"
           d="m 1105.9423,-169.65008 v 0.62063 A 258.82577,258.82577 0 0 0 855.3845,89.382178 258.82577,258.82577 0 0 0 952.37445,291.29593 h -96.76826 v 56.91074 h 258.55991 a 258.82577,258.82577 0 0 0 0.044,0.002 258.82577,258.82577 0 0 0 0.031,-0.002 h 9.6815 v -0.48422 A 258.82577,258.82577 0 0 0 1373.0361,89.382178 258.82577,258.82577 0 0 0 1294.7427,-96.065945 h 69.5038 v -73.584135 z m 8.2677,79.352774 A 179.67972,179.67972 0 0 1 1293.89,89.382178 179.67972,179.67972 0 0 1 1114.21,269.06215 179.67972,179.67972 0 0 1 934.53057,89.382178 179.67972,179.67972 0 0 1 1114.21,-90.297306 Z"
           style="opacity:0.52600002;fill:#0000ff;fill-opacity:1;stroke:none;stroke-width:10.15968704;stroke-linecap:round;stroke-linejoin:round;stroke-miterlimit:4;stroke-dasharray:none;stroke-opacity:1;paint-order:markers stroke fill"
           inkscape:connector-curvature="0" /></g><path
         inkscape:connector-curvature="0"
         style="opacity:0.52600002;fill:#0000ff;fill-opacity:1;stroke:none;stroke-width:16.78291512;stroke-linecap:round;stroke-linejoin:round;stroke-miterlimit:4;stroke-dasharray:none;stroke-opacity:1;paint-order:markers stroke fill"
         d="m 1004.6232,-218.841 h 315.9886 v 40.70296 h -315.9886 z"
         id="path1103" /><path
         inkscape:connector-curvature="0"
         style="opacity:0.52600002;fill:#0000ff;fill-opacity:1;stroke:none;stroke-width:11.79055119;stroke-linecap:round;stroke-linejoin:round;stroke-miterlimit:4;stroke-dasharray:none;stroke-opacity:1;paint-order:markers stroke fill"
         d="M 854.42041,99.823367 H 1010.3774 V 140.52633 H 854.42041 Z"
         id="path1105" /></g><g
       id="g1127"
       transform="translate(3094.7102,2009.1584)"><g
         transform="translate(-299.18948,-457.30431)"
         id="g1111"><path
           id="path1109"
           d="m 1105.9423,-169.65008 v 0.62063 A 258.82577,258.82577 0 0 0 855.3845,89.382178 258.82577,258.82577 0 0 0 952.37445,291.29593 h -96.76826 v 56.91074 h 258.55991 a 258.82577,258.82577 0 0 0 0.044,0.002 258.82577,258.82577 0 0 0 0.031,-0.002 h 9.6815 v -0.48422 A 258.82577,258.82577 0 0 0 1373.0361,89.382178 258.82577,258.82577 0 0 0 1294.7427,-96.065945 h 69.5038 v -73.584135 z m 8.2677,79.352774 A 179.67972,179.67972 0 0 1 1293.89,89.382178 179.67972,179.67972 0 0 1 1114.21,269.06215 179.67972,179.67972 0 0 1 934.53057,89.382178 179.67972,179.67972 0 0 1 1114.21,-90.297306 Z"
           style="opacity:0.52600002;fill:#0000ff;fill-opacity:1;stroke:none;stroke-width:10.15968704;stroke-linecap:round;stroke-linejoin:round;stroke-miterlimit:4;stroke-dasharray:none;stroke-opacity:1;paint-order:markers stroke fill"
           inkscape:connector-curvature="0" /></g><path
         inkscape:connector-curvature="0"
         style="opacity:0.52600002;fill:#0000ff;fill-opacity:1;stroke:none;stroke-width:16.78291512;stroke-linecap:round;stroke-linejoin:round;stroke-miterlimit:4;stroke-dasharray:none;stroke-opacity:1;paint-order:markers stroke fill"
         d="m 815.02051,-547.60162 h 315.98859 v 40.70296 H 815.02051 Z"
         id="path1113" /><path
         inkscape:connector-curvature="0"
         style="opacity:0.52600002;fill:#0000ff;fill-opacity:1;stroke:none;stroke-width:11.79055119;stroke-linecap:round;stroke-linejoin:round;stroke-miterlimit:4;stroke-dasharray:none;stroke-opacity:1;paint-order:markers stroke fill"
         d="m 664.81772,-228.93725 h 155.95699 v 40.70296 H 664.81772 Z"
         id="path1115" /></g><g
       id="g1175"
       transform="translate(1864.7163,375.72641)"><g
         transform="translate(612.56706,555.70017)"
         id="g1131"><path
           id="path1129"
           d="m 1105.9423,-169.65008 v 0.62063 A 258.82577,258.82577 0 0 0 855.3845,89.382178 258.82577,258.82577 0 0 0 952.37445,291.29593 h -96.76826 v 56.91074 h 258.55991 a 258.82577,258.82577 0 0 0 0.044,0.002 258.82577,258.82577 0 0 0 0.031,-0.002 h 9.6815 v -0.48422 A 258.82577,258.82577 0 0 0 1373.0361,89.382178 258.82577,258.82577 0 0 0 1294.7427,-96.065945 h 69.5038 v -73.584135 z m 8.2677,79.352774 A 179.67972,179.67972 0 0 1 1293.89,89.382178 179.67972,179.67972 0 0 1 1114.21,269.06215 179.67972,179.67972 0 0 1 934.53057,89.382178 179.67972,179.67972 0 0 1 1114.21,-90.297306 Z"
           style="opacity:0.52600002;fill:#0000ff;fill-opacity:1;stroke:none;stroke-width:10.15968704;stroke-linecap:round;stroke-linejoin:round;stroke-miterlimit:4;stroke-dasharray:none;stroke-opacity:1;paint-order:markers stroke fill"
           inkscape:connector-curvature="0" /></g><path
         inkscape:connector-curvature="0"
         style="opacity:0.52600002;fill:#0000ff;fill-opacity:1;stroke:none;stroke-width:16.78291512;stroke-linecap:round;stroke-linejoin:round;stroke-miterlimit:4;stroke-dasharray:none;stroke-opacity:1;paint-order:markers stroke fill"
         d="m 1726.7771,465.40286 h 315.9885 v 40.70296 h -315.9885 z"
         id="path1133" /><path
         style="opacity:0.52600002;fill:#0000ff;fill-opacity:1;stroke:none;stroke-width:14.92954063;stroke-linecap:round;stroke-linejoin:round;stroke-miterlimit:4;stroke-dasharray:none;stroke-opacity:1;paint-order:markers stroke fill"
         d="m 1482.4797,784.06723 h 250.0516 v 40.70296 h -250.0516 z"
         id="path1135"
         inkscape:connector-curvature="0" /></g><text
       xml:space="preserve"
       style="font-style:normal;font-variant:normal;font-weight:normal;font-stretch:normal;font-size:63.86327362px;line-height:1.25;font-family:'Ubuntu Condensed';-inkscape-font-specification:'Ubuntu Condensed, ';opacity:0.52600002;fill:#0000ff;fill-opacity:1;stroke:none;stroke-width:234.16534424;stroke-linecap:round;stroke-linejoin:round;stroke-miterlimit:4;stroke-dasharray:none;stroke-opacity:1;paint-order:markers stroke fill"
       x="515.87677"
       y="-362.18152"
       id="text1142"><tspan
         sodipodi:role="line"
         id="tspan1140"
         x="515.87677"
         y="-362.18152"
         style="stroke-width:234.16534424">diff</tspan></text>
<g
       id="g1144"
       transform="translate(165.74309,-334.87181)" /><path
       d="m 3343.5851,226.07594 h 315.9885 v 40.70296 h -315.9885 z m -10.3844,-79.35277 v 0.62063 a 258.82577,258.82577 0 0 0 -250.5578,258.41163 258.82577,258.82577 0 0 0 96.9899,201.91375 h -96.7682 v 56.91074 h 258.5599 a 258.82577,258.82577 0 0 0 0.044,0.002 258.82577,258.82577 0 0 0 0.031,-0.002 h 9.6815 V 664.0957 A 258.82577,258.82577 0 0 0 3600.2945,405.75543 258.82577,258.82577 0 0 0 3522.0011,220.3073 h 69.5038 v -73.58413 z m 8.2677,79.35277 a 179.67972,179.67972 0 0 1 179.68,179.67949 179.67972,179.67972 0 0 1 -179.68,179.67997 179.67972,179.67972 0 0 1 -179.6794,-179.67997 179.67972,179.67972 0 0 1 179.6794,-179.67949 z"
       style="opacity:0.52600002;fill:#0000ff;fill-opacity:1;stroke:none;stroke-width:16.78291512;stroke-linecap:round;stroke-linejoin:round;stroke-miterlimit:4;stroke-dasharray:none;stroke-opacity:1;paint-order:markers stroke fill"
       id="path1146"
       inkscape:connector-curvature="0" /><path
       inkscape:connector-curvature="0"
       id="path1148"
       d="m 3097.1711,544.74031 h 250.0515 v 40.70296 h -250.0515 z"
       style="opacity:0.52600002;fill:#0000ff;fill-opacity:1;stroke:none;stroke-width:14.92954063;stroke-linecap:round;stroke-linejoin:round;stroke-miterlimit:4;stroke-dasharray:none;stroke-opacity:1;paint-order:markers stroke fill" /><text
       id="text1152"
       y="350.56323"
       x="3635.1868"
       style="font-style:normal;font-variant:normal;font-weight:normal;font-stretch:normal;font-size:63.86327362px;line-height:1.25;font-family:'Ubuntu Condensed';-inkscape-font-specification:'Ubuntu Condensed, ';opacity:0.52600002;fill:#0000ff;fill-opacity:1;stroke:none;stroke-width:234.16534424;stroke-linecap:round;stroke-linejoin:round;stroke-miterlimit:4;stroke-dasharray:none;stroke-opacity:1;paint-order:markers stroke fill"
       xml:space="preserve"><tspan
         style="stroke-width:234.16534424"
         y="350.56323"
         x="3635.1868"
         id="tspan1150"
         sodipodi:role="line">combine</tspan></text>
<path
       d="m 2809.3525,-82.556606 h 250.0515 v 40.70296 h -250.0515 z m 246.414,-318.664334 h 315.9886 v 40.7029 h -315.9886 z m -10.3844,-79.3528 v 0.6206 a 258.82577,258.82577 0 0 0 -250.5578,258.41165 258.82577,258.82577 0 0 0 96.99,201.913754 h -96.7683 v 56.91074 h 258.5599 a 258.82577,258.82577 0 0 0 0.044,0.002 258.82577,258.82577 0 0 0 0.031,-0.002 h 9.6815 v -0.48422 a 258.82577,258.82577 0 0 0 249.1135,-258.340274 258.82577,258.82577 0 0 0 -78.2934,-185.44815 h 69.5038 v -73.5841 z m 8.2677,79.3528 a 179.67972,179.67972 0 0 1 179.68,179.67945 179.67972,179.67972 0 0 1 -179.68,179.679974 179.67972,179.67972 0 0 1 -179.6794,-179.679974 179.67972,179.67972 0 0 1 179.6794,-179.67945 z"
       style="opacity:0.52600002;fill:#0000ff;fill-opacity:1;stroke:none;stroke-width:14.92954063;stroke-linecap:round;stroke-linejoin:round;stroke-miterlimit:4;stroke-dasharray:none;stroke-opacity:1;paint-order:markers stroke fill"
       id="path1165"
       inkscape:connector-curvature="0" /><text
       id="text1169"
       y="-276.73361"
       x="3347.3684"
       style="font-style:normal;font-variant:normal;font-weight:normal;font-stretch:normal;font-size:63.86327362px;line-height:1.25;font-family:'Ubuntu Condensed';-inkscape-font-specification:'Ubuntu Condensed, ';opacity:0.52600002;fill:#0000ff;fill-opacity:1;stroke:none;stroke-width:234.16534424;stroke-linecap:round;stroke-linejoin:round;stroke-miterlimit:4;stroke-dasharray:none;stroke-opacity:1;paint-order:markers stroke fill"
       xml:space="preserve"><tspan
         style="stroke-width:234.16534424"
         y="-276.73361"
         x="3347.3684"
         id="tspan1167"
         sodipodi:role="line">combine</tspan></text>
<g
       id="g1211"
       transform="translate(2859.0107,5049.484)"><path
         inkscape:connector-curvature="0"
         id="path1190"
         style="opacity:0.52600002;fill:#0000ff;fill-opacity:1;stroke:none;stroke-width:14.92954063;stroke-linecap:round;stroke-linejoin:round;stroke-miterlimit:4;stroke-dasharray:none;stroke-opacity:1;paint-order:markers stroke fill"
         d="m 365.46524,-973.43218 h 250.05152 v 40.70296 H 365.46524 Z m 246.414,-318.66432 h 315.98858 v 40.7029 H 611.87924 Z m -10.38437,-79.3528 v 0.6206 a 258.82577,258.82577 0 0 0 -250.5578,258.4116 258.82577,258.82577 0 0 0 96.98995,201.91379 h -96.76826 v 56.91074 h 258.55991 a 258.82577,258.82577 0 0 0 0.044,0.002 258.82577,258.82577 0 0 0 0.031,-0.002 h 9.6815 v -0.48422 a 258.82577,258.82577 0 0 0 249.1135,-258.34031 258.82577,258.82577 0 0 0 -78.2934,-185.4481 h 69.5038 v -73.5841 z m 8.2677,79.3528 a 179.67972,179.67972 0 0 1 179.68,179.6794 179.67972,179.67972 0 0 1 -179.68,179.68001 179.67972,179.67972 0 0 1 -179.67943,-179.68001 179.67972,179.67972 0 0 1 179.67943,-179.6794 z" /><text
         xml:space="preserve"
         style="font-style:normal;font-variant:normal;font-weight:normal;font-stretch:normal;font-size:63.86327362px;line-height:1.25;font-family:'Ubuntu Condensed';-inkscape-font-specification:'Ubuntu Condensed, ';opacity:0.52600002;fill:#0000ff;fill-opacity:1;stroke:none;stroke-width:234.16534424;stroke-linecap:round;stroke-linejoin:round;stroke-miterlimit:4;stroke-dasharray:none;stroke-opacity:1;paint-order:markers stroke fill"
         x="903.48108"
         y="-1167.6093"
         id="text1194"><tspan
           sodipodi:role="line"
           id="tspan1192"
           x="903.48108"
           y="-1167.6093"
           style="stroke-width:234.16534424">diff</tspan></text>
<rect
         style="opacity:0.52600002;fill:#0000ff;fill-opacity:1;stroke:none;stroke-width:28.43148804;stroke-linecap:round;stroke-linejoin:round;stroke-miterlimit:4;stroke-dasharray:none;stroke-opacity:1;paint-order:markers stroke fill"
         id="rect1196"
         width="138.17519"
         height="261.2598"
         x="609.76257"
         y="-1292.0966" /><rect
         y="-1193.989"
         x="473.03659"
         height="261.2598"
         width="142.48016"
         id="rect1198"
         style="opacity:0.52600002;fill:#0000ff;fill-opacity:1;stroke:none;stroke-width:28.87099648;stroke-linecap:round;stroke-linejoin:round;stroke-miterlimit:4;stroke-dasharray:none;stroke-opacity:1;paint-order:markers stroke fill" /></g><g
       id="g1228"
       transform="translate(2312.3886,3685.0619)"><path
         inkscape:connector-curvature="0"
         style="opacity:0.52600002;fill:#0000ff;fill-opacity:1;stroke:none;stroke-width:14.92954159;stroke-linecap:round;stroke-linejoin:round;stroke-miterlimit:4;stroke-dasharray:none;stroke-opacity:1;paint-order:markers stroke fill"
         d="m 1067.6738,-626.95428 v 0.62063 a 258.82577,258.82577 0 0 0 -250.55783,258.41164 258.82577,258.82577 0 0 0 40.86675,138.98479 h 81.23277 v -22.76554 a 179.67972,179.67972 0 0 1 -42.95345,-116.21925 179.67972,179.67972 0 0 1 179.67946,-179.67947 h 2.1167 136.0588 47.7258 a 258.82577,258.82577 0 0 0 -5.3686,-5.76866 h 69.5037 v -73.58414 z m 194.169,79.3528 a 258.82577,258.82577 0 0 1 32.0983,40.70292 h 100.1055 v -40.70292 z m 32.0983,40.70292 h -79.8241 v 24.35717 a 179.67972,179.67972 0 0 1 41.5045,114.61938 179.67972,179.67972 0 0 1 -173.9258,179.47637 v 0.21136 H 939.21549 890.11616 a 258.82577,258.82577 0 0 0 23.98975,22.22603 h -96.76825 v 56.91074 h 258.55994 a 258.82577,258.82577 0 0 0 0.044,0.002 258.82577,258.82577 0 0 0 0.031,-0.002 h 9.6816 v -0.48421 a 258.82577,258.82577 0 0 0 249.1135,-258.34029 258.82577,258.82577 0 0 0 -40.8265,-138.97655 z m -403.82494,318.66428 a 258.82577,258.82577 0 0 1 -32.13344,-40.70294 h -26.33844 v 40.70294 z"
         id="path1213" /><text
         xml:space="preserve"
         style="font-style:normal;font-variant:normal;font-weight:normal;font-stretch:normal;font-size:63.86327362px;line-height:1.25;font-family:'Ubuntu Condensed';-inkscape-font-specification:'Ubuntu Condensed, ';opacity:0.52600002;fill:#0000ff;fill-opacity:1;stroke:none;stroke-width:234.16534424;stroke-linecap:round;stroke-linejoin:round;stroke-miterlimit:4;stroke-dasharray:none;stroke-opacity:1;paint-order:markers stroke fill"
         x="1369.6602"
         y="-423.11432"
         id="text1217"><tspan
           sodipodi:role="line"
           id="tspan1215"
           x="1369.6602"
           y="-423.11432"
           style="stroke-width:234.16534424">diff</tspan></text>
<rect
         style="opacity:0.52600002;fill:#0000ff;fill-opacity:1;stroke:none;stroke-width:12.25992203;stroke-linecap:round;stroke-linejoin:round;stroke-miterlimit:4;stroke-dasharray:none;stroke-opacity:1;paint-order:markers stroke fill"
         id="rect1219"
         width="218.93811"
         height="40.488937"
         x="810.11938"
         y="-228.93723" /><rect
         style="opacity:0.52600002;fill:#0000ff;fill-opacity:1;stroke:none;stroke-width:12.83180046;stroke-linecap:round;stroke-linejoin:round;stroke-miterlimit:4;stroke-dasharray:none;stroke-opacity:1;paint-order:markers stroke fill"
         id="rect1221"
         width="240.91716"
         height="47.835541"
         x="1187.191"
         y="-547.38458" /></g><g
       id="g1251"
       transform="translate(3004.8441,3032.2134)"><path
         style="opacity:0.52600002;fill:#0000ff;fill-opacity:1;stroke:none;stroke-width:56.42661285;stroke-linecap:round;stroke-linejoin:round;stroke-miterlimit:4;stroke-dasharray:none;stroke-opacity:1;paint-order:markers stroke fill"
         d="m 827,-2027.7227 v 2.3457 a 978.23914,978.23914 0 0 0 -946.99023,976.6739 978.23914,978.23914 0 0 0 154.457027,525.29685 H 341.48828 v -86.04297 a 679.10446,679.10446 0 0 1 -162.34375,-439.25388 679.10446,679.10446 0 0 1 679.10352,-679.1035 h 8 514.23825 180.3809 a 978.23914,978.23914 0 0 0 -20.291,-21.8028 h 262.6914 v -278.1133 z m 733.8672,299.9161 a 978.23914,978.23914 0 0 1 0.7168,0.8203 h 498.9512 v -0.8203 z m -180.3809,181.6152 v 64.2812 a 679.10446,679.10446 0 0 1 156.8672,433.2071 679.10446,679.10446 0 0 1 -657.35741,678.33591 v 0.79883 H 341.48828 155.91602 a 978.23914,978.23914 0 0 0 90.66992,84.00391 h -365.73828 v 215.0957 h 977.23437 a 978.23914,978.23914 0 0 0 0.16602,0.0078 978.23914,978.23914 0 0 0 0.11718,-0.0078 h 36.5918 v -1.830078 A 978.23914,978.23914 0 0 0 1836.4883,-1048.7031 978.23914,978.23914 0 0 0 1698.6738,-1546.1914 Z M 155.91602,-369.56836 a 978.23914,978.23914 0 0 1 -0.70704,-0.80859 H -65.080078 v 0.80859 z"
         transform="scale(0.26458333)"
         id="path1236"
         inkscape:connector-curvature="0" /><text
         xml:space="preserve"
         style="font-style:normal;font-variant:normal;font-weight:normal;font-stretch:normal;font-size:63.86327362px;line-height:1.25;font-family:'Ubuntu Condensed';-inkscape-font-specification:'Ubuntu Condensed, ';opacity:0.52600002;fill:#0000ff;fill-opacity:1;stroke:none;stroke-width:234.16534424;stroke-linecap:round;stroke-linejoin:round;stroke-miterlimit:4;stroke-dasharray:none;stroke-opacity:1;paint-order:markers stroke fill"
         x="520.79675"
         y="-332.66165"
         id="text1240"><tspan
           sodipodi:role="line"
           id="tspan1238"
           x="520.79675"
           y="-332.66165"
           style="stroke-width:234.16534424">diff</tspan></text>
<rect
         style="opacity:0.52600002;fill:#0000ff;fill-opacity:1;stroke:none;stroke-width:12.66183472;stroke-linecap:round;stroke-linejoin:round;stroke-miterlimit:4;stroke-dasharray:none;stroke-opacity:1;paint-order:markers stroke fill"
         id="rect1242"
         width="72.385254"
         height="115.32508"
         x="477.11453"
         y="-554.33649" /><rect
         style="opacity:0.52600002;fill:#0000ff;fill-opacity:1;stroke:none;stroke-width:11.64166641;stroke-linecap:round;stroke-linejoin:round;stroke-miterlimit:4;stroke-dasharray:none;stroke-opacity:1;paint-order:markers stroke fill"
         id="rect1244"
         width="87.408577"
         height="33.050011"
         x="-46.096062"
         y="-120.34367" /></g><path
       id="path1258"
       d="m 2624.6786,2290.0245 v 0.6207 a 258.82577,258.82577 0 0 0 -250.5579,258.4116 258.82577,258.82577 0 0 0 40.8668,138.9848 h 81.2328 v -22.7655 a 179.67972,179.67972 0 0 1 -42.9535,-116.2193 179.67972,179.67972 0 0 1 179.6795,-179.6795 h 2.1166 136.0589 47.7258 a 258.82577,258.82577 0 0 0 -5.3687,-5.7686 h 69.5038 v -73.5842 z m 194.169,79.3528 a 258.82577,258.82577 0 0 1 0.1896,0.2171 h 63.9455 v -0.2171 z m -47.7258,48.0524 v 17.0077 a 179.67972,179.67972 0 0 1 41.5045,114.6194 179.67972,179.67972 0 0 1 -173.9259,179.4763 v 0.2114 h -142.4801 -49.0394 v 0.057 a 258.82577,258.82577 0 0 0 23.9298,22.1692 h -96.7683 v 56.9107 h 258.56 a 258.82577,258.82577 0 0 0 0.044,0 258.82577,258.82577 0 0 0 0.031,-0 h 9.6815 v -0.4842 a 258.82577,258.82577 0 0 0 249.1135,-258.3402 258.82577,258.82577 0 0 0 -36.4634,-131.6271 z"
       style="opacity:0.52600002;fill:#0000ff;fill-opacity:1;stroke:none;stroke-width:14.92954159;stroke-linecap:round;stroke-linejoin:round;stroke-miterlimit:4;stroke-dasharray:none;stroke-opacity:1;paint-order:markers stroke fill"
       inkscape:connector-curvature="0" /><text
       id="text1262"
       y="2464.3447"
       x="2921.7449"
       style="font-style:normal;font-variant:normal;font-weight:normal;font-stretch:normal;font-size:63.86327362px;line-height:1.25;font-family:'Ubuntu Condensed';-inkscape-font-specification:'Ubuntu Condensed, ';opacity:0.52600002;fill:#0000ff;fill-opacity:1;stroke:none;stroke-width:234.16534424;stroke-linecap:round;stroke-linejoin:round;stroke-miterlimit:4;stroke-dasharray:none;stroke-opacity:1;paint-order:markers stroke fill"
       xml:space="preserve"><tspan
         style="stroke-width:234.16534424"
         y="2464.3447"
         x="2921.7449"
         id="tspan1260"
         sodipodi:role="line">diff</tspan></text>
<rect
       y="2367.5273"
       x="2825.6035"
       height="23.677383"
       width="79.642113"
       id="rect1264"
       style="opacity:0.52600002;fill:#0000ff;fill-opacity:1;stroke:none;stroke-width:11.64166641;stroke-linecap:round;stroke-linejoin:round;stroke-miterlimit:4;stroke-dasharray:none;stroke-opacity:1;paint-order:markers stroke fill" /><path
       id="path1291"
       d="m 2418.458,1950.0599 -419.4421,462.6963 v 55.5206 h 106.021 l 403.2792,-444.8663 v -73.3506 z"
       style="opacity:0.52600002;fill:#0000ff;fill-opacity:1;stroke:none;stroke-width:11.7332592;stroke-linecap:round;stroke-linejoin:round;stroke-miterlimit:4;stroke-dasharray:none;stroke-opacity:1;paint-order:markers stroke fill"
       inkscape:connector-curvature="0" /><g
       id="g1299"
       transform="translate(910.75,1466.8521)"><path
         style="opacity:0.52600002;fill:#0000ff;fill-opacity:1;stroke:none;stroke-width:14.92954159;stroke-linecap:round;stroke-linejoin:round;stroke-miterlimit:4;stroke-dasharray:none;stroke-opacity:1;paint-order:markers stroke fill"
         d="m 1093.7602,44.969523 v 0.62064 a 258.82577,258.82577 0 0 0 -250.55786,258.411627 258.82577,258.82577 0 0 0 40.8668,138.98479 h 81.2328 V 420.22104 A 179.67972,179.67972 0 0 1 922.34844,304.00179 179.67972,179.67972 0 0 1 1102.0279,124.32232 h 2.1166 136.0589 47.7258 a 258.82577,258.82577 0 0 0 -5.3687,-5.76865 h 69.5038 V 44.969523 Z m 194.169,79.352797 a 258.82577,258.82577 0 0 1 0.1896,0.21704 h 6.5666 v -0.21704 z m -47.7258,48.05236 v 17.00773 a 179.67972,179.67972 0 0 1 41.5045,114.61938 179.67972,179.67972 0 0 1 -173.9259,179.47637 v 0.21136 h -142.48006 -49.0394 v 0.0568 a 258.82577,258.82577 0 0 0 23.9298,22.16919 h -96.7683 v 56.91074 H 1101.984 a 258.82577,258.82577 0 0 0 0.044,0.002 258.82577,258.82577 0 0 0 0.031,-0.002 h 9.6816 v -0.48421 A 258.82577,258.82577 0 0 0 1360.854,304.00175 258.82577,258.82577 0 0 0 1324.3906,172.37464 Z"
         id="path1293"
         inkscape:connector-curvature="0" /><path
         style="opacity:0.52600002;fill:#0000ff;fill-opacity:1;stroke:none;stroke-width:11.7332592;stroke-linecap:round;stroke-linejoin:round;stroke-miterlimit:4;stroke-dasharray:none;stroke-opacity:1;paint-order:markers stroke fill"
         d="M 1262.2063,45.203113 842.76418,507.8994 v 55.52064 H 948.7851 L 1352.0643,118.55367 V 45.203113 Z"
         id="path1295"
         inkscape:connector-curvature="0" /></g><path
       id="path1306"
       d="m 1767.9771,950.06302 v 0.62063 a 258.82577,258.82577 0 0 0 -250.5583,258.41165 258.82577,258.82577 0 0 0 40.8672,138.9848 h 17.5395 l -57.0461,62.929 h -1.1389 v 1.2562 l -0.6594,0.7276 v 55.5207 h 106.0209 l 0.5384,-0.5938 h 152.6605 a 258.82577,258.82577 0 0 0 0.044,0 258.82577,258.82577 0 0 0 0.031,0 h 9.6816 v -0.4842 a 258.82577,258.82577 0 0 0 249.1135,-258.3403 258.82577,258.82577 0 0 0 -36.4634,-131.6271 h -21.1161 l 48.7898,-53.8211 v -73.35051 -0.23357 z m 8.2677,79.35278 h 2.1162 86.3389 l -243.9448,269.1014 a 179.67972,179.67972 0 0 1 -24.1903,-89.4219 179.67972,179.67972 0 0 1 179.68,-179.6795 z m 158.456,95.2557 a 179.67972,179.67972 0 0 1 21.224,84.4238 179.67972,179.67972 0 0 1 -173.9263,179.4764 v 0.2113 h -86.7193 z"
       style="opacity:0.52600002;fill:#0000ff;fill-opacity:1;stroke:none;stroke-width:14.92954159;stroke-linecap:round;stroke-linejoin:round;stroke-miterlimit:4;stroke-dasharray:none;stroke-opacity:1;paint-order:markers stroke fill"
       inkscape:connector-curvature="0" /><rect
       transform="rotate(42.158488)"
       y="-603.34131"
       x="2189.5989"
       height="238.00383"
       width="31.979843"
       id="rect1308"
       style="opacity:0.52600002;fill:#0000ff;fill-opacity:1;stroke:none;stroke-width:11.64166641;stroke-linecap:round;stroke-linejoin:round;stroke-miterlimit:4;stroke-dasharray:none;stroke-opacity:1;paint-order:markers stroke fill" /><rect
       style="opacity:0.52600002;fill:#0000ff;fill-opacity:1;stroke:none;stroke-width:11.64166641;stroke-linecap:round;stroke-linejoin:round;stroke-miterlimit:4;stroke-dasharray:none;stroke-opacity:1;paint-order:markers stroke fill"
       id="rect1310"
       width="31.979843"
       height="238.00383"
       x="2040.9241"
       y="-211.41541"
       transform="rotate(42.158488)" /><path
       inkscape:connector-curvature="0"
       id="path1314"
       d="m 1649.7146,274.70096 -1.7616,1.64693 h 3.301 z m -19.1642,50.35197 v 71.76668 85.00358 130.16311 h 37.1812 V 469.58002 436.5965 l 61.0991,65.36449 v 272.31102 h 27.8319 V 531.7359 l 331.6371,354.78818 h 50.2807 V 797.69435 692.79997 545.7149 h -30.1346 v 169.84339 49.89772 l -66.5096,-71.15275 V 451.59972 h -27.8314 V 664.52885 L 1696.781,325.05293 Z"
       style="opacity:0.52600002;fill:#ff0000;fill-opacity:1;stroke:none;stroke-width:21.25561714;stroke-linecap:round;stroke-linejoin:round;stroke-miterlimit:4;stroke-dasharray:none;stroke-opacity:1;paint-order:markers stroke fill" /><path
       inkscape:connector-curvature="0"
       id="path1316"
       d="m 1877.2603,344.19683 v 0.6206 a 258.82577,258.82577 0 0 0 -250.5586,258.4116 258.82577,258.82577 0 0 0 30.8493,121.6981 l 58.0368,-64.099 a 179.67972,179.67972 0 0 1 -9.74,-57.5991 179.67972,179.67972 0 0 1 179.6802,-179.6794 h 2.1161 86.339 l -243.945,269.1014 a 179.67972,179.67972 0 0 1 -0.044,-0.086 l -44.9539,49.6492 h 0.069 l -57.0461,62.9289 h -1.139 v 1.2563 l -0.6594,0.7276 v 55.5206 h 106.021 l 0.5384,-0.5937 h 152.6607 a 258.82577,258.82577 0 0 0 0.044,0 258.82577,258.82577 0 0 0 0.031,0 h 9.6815 v -0.4843 a 258.82577,258.82577 0 0 0 249.1135,-258.3403 258.82577,258.82577 0 0 0 -28.0866,-115.7743 l -58.5706,64.6886 a 179.67972,179.67972 0 0 1 7.5111,51.0857 179.67972,179.67972 0 0 1 -173.9263,179.4764 v 0.2114 h -86.7192 l 239.4215,-264.1118 a 179.67972,179.67972 0 0 1 0.2595,0.5498 l 43.2371,-47.7531 h -0.7059 l 48.7898,-53.82111 v -73.35049 -0.2336 z"
       style="opacity:0.52600002;fill:#0000ff;fill-opacity:1;stroke:none;stroke-width:14.92954159;stroke-linecap:round;stroke-linejoin:round;stroke-miterlimit:4;stroke-dasharray:none;stroke-opacity:1;paint-order:markers stroke fill" /></g></svg>